<svg width="87" height="42" viewBox="0 0 87 42" fill="none" xmlns="http://www.w3.org/2000/svg">
<path d="M18.082 10.1106C18.3437 10.675 18.4745 11.32 18.4745 12.0457C18.4745 12.7552 18.3437 13.4083 18.082 14.0049C17.6076 15.0208 16.7735 15.7868 15.5795 16.3028C14.4018 16.8188 12.9624 17.0768 11.2614 17.0768H0.490692V0H11.7521C13.1914 0 14.3773 0.201567 15.3096 0.604702C16.2582 1.00784 16.9125 1.60448 17.2723 2.39462C17.5177 2.92676 17.6404 3.5234 17.6404 4.18454C17.6404 4.79731 17.534 5.33751 17.3214 5.80514C17.1088 6.25665 16.7898 6.64366 16.3646 6.96617C15.9393 7.27255 15.3914 7.53056 14.7207 7.74019C15.5386 7.90145 16.2337 8.18364 16.8062 8.58678C17.3787 8.98991 17.8039 9.49786 18.082 10.1106ZM6.62434 6.65173H8.90605C9.56031 6.65173 10.0755 6.58723 10.4517 6.45822C10.8279 6.31309 11.0896 6.07928 11.2368 5.75677C11.3186 5.56326 11.3595 5.33751 11.3595 5.0795C11.3595 4.80537 11.3186 4.57961 11.2368 4.40223C10.9751 3.80559 10.1982 3.50727 8.90605 3.50727H6.62434V6.65173ZM11.8502 12.5778C11.9483 12.3359 11.9974 12.086 11.9974 11.828C11.9974 11.57 11.9483 11.32 11.8502 11.0781C11.703 10.7556 11.4331 10.5299 11.0406 10.4009C10.6644 10.2719 10.1328 10.2074 9.44581 10.2074H6.62434V13.5937H9.54395C10.1655 13.5937 10.6644 13.5211 11.0406 13.376C11.4331 13.2148 11.703 12.9487 11.8502 12.5778Z" fill="#424242"/>
<path d="M30.1647 17.6815C26.7298 17.6815 24.1701 16.9559 22.4854 15.5046C20.8007 14.0533 19.9583 11.9167 19.9583 9.09473V0H26.092V8.7319C26.092 10.1509 26.4109 11.191 27.0488 11.8522C27.7031 12.5133 28.7253 12.8439 30.1156 12.8439C31.5059 12.8439 32.52 12.5133 33.1579 11.8522C33.7958 11.191 34.1148 10.1509 34.1148 8.7319V0H40.2484V9.09473C40.2484 11.9328 39.4142 14.0775 37.7459 15.5288C36.0939 16.9639 33.5668 17.6815 30.1647 17.6815Z" fill="#424242"/>
<path d="M42.7074 0H48.8411V17.0768H42.7074V0Z" fill="#424242"/>
<path d="M51.7881 0H57.9217V12.2392H64.178V17.0768H51.7881V0Z" fill="#424242"/>
<path d="M65.9003 0H76.4501C78.969 0 81.0545 0.403135 82.7065 1.20941C84.3584 1.99955 85.5443 3.20895 86.264 4.83762C86.7546 5.95027 87 7.18387 87 8.5384C87 9.97356 86.7546 11.2233 86.264 12.2876C84.7755 15.4804 81.5042 17.0768 76.4501 17.0768H65.9003V0ZM76.033 12.3843C77.0962 12.3843 77.9467 12.2231 78.5846 11.9005C79.2389 11.578 79.7132 11.1023 80.0076 10.4734C80.253 9.95743 80.3757 9.31242 80.3757 8.5384C80.3757 7.76438 80.2448 7.09518 79.9831 6.53079C79.6723 5.9019 79.198 5.44232 78.5601 5.15207C77.9386 4.86181 77.0962 4.71668 76.033 4.71668H72.0339V12.3843H76.033Z" fill="#424242"/>
<path d="M10.2064 42C6.77154 42 4.21177 41.2744 2.52706 39.8231C0.842354 38.3718 0 36.2352 0 33.4132V24.3185H6.13365V33.0504C6.13365 34.4694 6.45259 35.5095 7.09049 36.1707C7.74475 36.8318 8.76702 37.1624 10.1573 37.1624C11.5476 37.1624 12.5617 36.8318 13.1996 36.1707C13.8375 35.5095 14.1565 34.4694 14.1565 33.0504V24.3185H20.2901V33.4132C20.2901 36.2513 19.4559 38.396 17.7876 39.8473C16.1356 41.2824 13.6085 42 10.2064 42Z" fill="#424242"/>
<path d="M22.7491 24.3185H33.0291C34.8283 24.3185 36.2758 24.5684 37.3717 25.0683C38.484 25.5521 39.2854 26.3261 39.7761 27.3904C39.9724 27.8258 40.1114 28.2692 40.1932 28.7207C40.2913 29.1561 40.3404 29.656 40.3404 30.2204C40.3404 31.1879 40.1523 32.0909 39.7761 32.9295C38.762 35.1386 36.513 36.2432 33.0291 36.2432H28.8828V41.3953H22.7491V24.3185ZM31.7288 32.1313C32.334 32.1313 32.8165 32.0587 33.1763 31.9136C33.5361 31.7684 33.806 31.5346 33.986 31.2121C34.1332 30.9218 34.2068 30.5913 34.2068 30.2204C34.2068 29.8334 34.1413 29.5189 34.0105 29.2771C33.8306 28.9707 33.5525 28.753 33.1763 28.624C32.8165 28.495 32.2931 28.4305 31.6061 28.4305H28.8828V32.1313H31.7288Z" fill="#424242"/>
</svg>
