<svg width="576" height="166" viewBox="0 0 576 166" fill="none" xmlns="http://www.w3.org/2000/svg">
<rect x="-1" y="1" width="82" height="82" transform="matrix(1 0 0 -1 2 166)" stroke="#424242" stroke-width="2"/>
<rect x="-1" y="1" width="82" height="82" transform="matrix(1 0 0 -1 84 166)" stroke="#424242" stroke-width="2"/>
<rect x="-1" y="1" width="82" height="82" transform="matrix(1 0 0 -1 166 166)" stroke="#424242" stroke-width="2"/>
<rect x="-1" y="1" width="82" height="82" transform="matrix(1 0 0 -1 248 166)" stroke="#424242" stroke-width="2"/>
<rect x="-1" y="1" width="82" height="82" rx="41" transform="matrix(1 0 0 -1 330 166)" fill="#43A047" stroke="#424242" stroke-width="2"/>
<rect x="-1" y="1" width="82" height="82" transform="matrix(1 0 0 -1 166 84)" stroke="#424242" stroke-width="2"/>
<rect x="-1" y="1" width="82" height="82" rx="41" transform="matrix(1 0 0 -1 248 84)" fill="#9BB7FF" stroke="#424242" stroke-width="2"/>
<rect x="-1" y="1" width="82" height="82" transform="matrix(1 0 0 -1 330 84)" stroke="#424242" stroke-width="2"/>
<rect x="-1" y="1" width="82" height="82" transform="matrix(1 0 0 -1 412 84)" stroke="#424242" stroke-width="2"/>
<rect x="-1" y="1" width="82" height="82" transform="matrix(1 0 0 -1 494 84)" stroke="#424242" stroke-width="2"/>
<rect x="-1" y="1" width="82" height="82" transform="matrix(1 0 0 -1 412 166)" stroke="#424242" stroke-width="2"/>
<rect x="-1" y="1" width="82" height="82" transform="matrix(1 0 0 -1 494 166)" stroke="#424242" stroke-width="2"/>
<rect x="1" y="-1" width="162" height="82" rx="41" transform="matrix(1 0 0 -1 2 82)" fill="#43A047" stroke="#424242" stroke-width="2"/>
</svg>
