<svg width="300" height="34" viewBox="0 0 300 34" fill="none" xmlns="http://www.w3.org/2000/svg">
<path d="M29.9923 2.18359H3.57421V9.95363H17.638L0 27.5916L4.97282 32.6421L22.9993 14.6156V29.3787H29.9923V2.18359Z" fill="#424242"/>
<path d="M60.1428 1.40625H47.3223V32.4864H60.1428C67.2912 32.4864 72.031 29.7669 74.2843 24.9494C75.3721 22.7738 75.7606 20.132 75.7606 16.9463C75.7606 13.7606 75.2944 11.1188 74.2843 8.94318C72.1087 4.12576 67.2912 1.40625 60.1428 1.40625ZM67.602 22.5407C66.2811 25.3379 63.6393 26.892 59.1327 26.892H54.1599V7.00067H59.1327C63.6393 7.00067 66.3588 8.47698 67.602 11.3519C68.3013 12.8282 68.6122 14.5376 68.6122 16.9463C68.6122 19.355 68.3013 21.0644 67.602 22.5407Z" fill="#424242"/>
<path d="M81.6636 32.4864H102.41V27.0474H88.5012V19.355H102.332V14.0714H88.5012V6.84527H102.41V1.40625H81.6636V32.4864Z" fill="#424242"/>
<path d="M123.469 14.0676C119.584 13.0575 115.932 12.5136 115 10.4934C114.844 10.0272 114.766 9.63866 114.766 9.09476C114.766 8.55086 114.844 8.16236 115.077 7.69615C115.699 6.29755 117.486 5.52055 119.817 5.52055C122.303 5.52055 123.935 6.37525 124.712 7.92925C125.101 8.70626 125.256 9.63866 125.256 10.7265H132.249C132.249 8.93936 131.938 7.54075 131.394 6.21985C129.685 2.64563 125.645 0.703125 120.128 0.703125C114.456 0.703125 110.182 2.80103 108.628 6.21985C108.084 7.38535 107.773 8.55086 107.773 9.94946C107.773 11.3481 108.084 12.4359 108.473 13.446C109.794 16.3209 113.057 17.7195 116.864 18.7296C120.827 19.8174 124.79 20.439 125.878 22.77C126.111 23.2362 126.266 23.7024 126.266 24.4017C126.266 24.9456 126.111 25.4895 125.878 26.1111C125.178 27.5874 123.236 28.3644 120.594 28.3644C117.719 28.3644 115.932 27.432 115.077 25.7226C114.689 24.9456 114.611 23.9355 114.611 22.8477H107.152C107.23 24.6348 107.463 26.1888 108.084 27.5874C109.794 31.1617 113.912 33.415 120.361 33.415C126.499 33.415 131.084 31.3948 132.871 27.6651C133.415 26.4996 133.725 25.1787 133.725 23.6247C133.725 22.1484 133.415 20.9052 133.026 19.8174C131.394 16.4763 127.665 15.1554 123.469 14.0676Z" fill="#424242"/>
<path d="M145.845 1.40625H139.085V32.4864H145.845V1.40625Z" fill="#424242"/>
<path d="M167.989 20.5202H175.992C175.914 21.9188 175.681 22.8512 175.292 23.8613C174.127 26.3477 171.563 27.5909 167.989 27.5909C164.259 27.5909 161.539 26.1923 160.219 23.3951C159.442 21.6857 159.131 19.8986 159.131 16.946C159.131 13.9934 159.442 12.1286 160.219 10.4968C161.539 7.69963 164.104 6.30103 167.833 6.30103C170.164 6.30103 172.184 6.84493 173.505 8.08814C174.671 9.02054 175.292 10.4191 175.525 12.1286H182.519C182.208 8.86514 180.809 6.06793 178.556 4.04772C175.992 1.79441 172.34 0.628906 167.911 0.628906C160.762 0.628906 155.945 3.50382 153.459 8.63204C152.371 10.8853 151.827 13.6049 151.827 16.946C151.827 20.2871 152.371 23.0066 153.459 25.2599C155.867 30.3104 160.762 33.263 167.755 33.263C174.282 33.263 178.789 30.7766 181.12 25.8815C182.285 23.3951 182.752 20.5979 182.752 17.6453V15.5474H167.989V20.5202Z" fill="#424242"/>
<path d="M209.946 22.7738L195.649 1.40625H188.656V32.4864H195.338V11.1965L209.557 32.4864H216.55V1.40625H209.946V22.7738Z" fill="#424242"/>
<path d="M254.006 25.6484C252.607 26.8139 250.665 27.5132 248.256 27.5132C244.759 27.5132 242.195 26.1146 240.874 23.3951C240.097 21.7634 239.787 19.7432 239.787 16.946C239.787 14.1488 240.097 12.2063 240.874 10.5745C242.118 7.93273 244.526 6.37873 248.256 6.37873C250.665 6.37873 252.452 7.00033 253.85 8.16583C255.171 9.33134 255.871 10.8853 255.948 12.9833H263.174C263.019 9.40904 261.698 6.37873 259.134 4.20312C256.492 1.94981 252.84 0.628906 248.489 0.628906C241.418 0.628906 236.523 3.58152 234.27 8.55434C233.182 10.963 232.638 13.6826 232.638 16.946C232.638 20.2094 233.182 22.9289 234.27 25.3376C236.679 30.3881 241.574 33.263 248.567 33.263C252.918 33.263 256.803 32.0198 259.367 29.6888C261.776 27.5909 263.252 24.6383 263.33 21.0641H256.104C256.026 23.0843 255.249 24.5606 254.006 25.6484Z" fill="#424242"/>
<path d="M298.213 8.47664C295.882 3.58152 291.064 0.628906 284.071 0.628906C277.001 0.628906 272.106 3.58152 269.852 8.47664C268.764 10.8853 268.221 13.7603 268.221 16.946C268.221 20.1317 268.764 23.0066 269.93 25.4153C272.261 30.3881 277.078 33.263 284.071 33.263C291.142 33.263 295.882 30.3881 298.291 25.4153C299.456 23.0066 300 20.1317 300 16.946C300 13.7603 299.301 10.8853 298.213 8.47664ZM291.531 23.0843C290.287 25.8038 287.879 27.3578 283.994 27.3578C280.109 27.3578 277.622 25.7261 276.457 23.0843C275.68 21.3749 275.369 19.5101 275.369 16.8683C275.369 14.2265 275.68 12.3617 276.457 10.6522C277.7 8.01043 280.109 6.37873 283.994 6.37873C287.879 6.37873 290.365 8.01043 291.531 10.6522C292.385 12.3617 292.618 14.2265 292.618 16.8683C292.618 19.5101 292.308 21.4526 291.531 23.0843Z" fill="#424242"/>
</svg>
