<svg width="260" height="260" viewBox="0 0 260 260" fill="none" xmlns="http://www.w3.org/2000/svg">
<path d="M65.5 1C29.8776 1 1 29.8776 1 65.5C1 101.122 29.8776 130 65.5 130C29.8776 130 1 158.878 1 194.5C1 230.122 29.8776 259 65.5 259C101.122 259 130 230.122 130 194.5C130 230.122 158.878 259 194.5 259C230.122 259 259 230.122 259 194.5C259 158.878 230.122 130 194.5 130C230.122 130 259 101.122 259 65.5C259 29.8776 230.122 1 194.5 1C158.878 1 130 29.8776 130 65.5C130 29.8776 101.122 1 65.5 1Z" fill="#9BB7FF" stroke="#424242" stroke-width="2"/>
</svg>
