<svg width="259" height="259" viewBox="0 0 259 259" fill="none" xmlns="http://www.w3.org/2000/svg">
<mask id="path-1-inside-1_552_444" fill="white">
<path fill-rule="evenodd" clip-rule="evenodd" d="M259 57.8617C259 71.3871 248.614 83.8286 231.21 93.6808C248.614 103.533 259 115.975 259 129.5C259 143.025 248.614 155.467 231.21 165.319C248.614 175.171 259 187.613 259 201.138C259 233.094 201.021 259 129.5 259C57.9791 259 0 233.094 0 201.138C0 187.613 10.3864 175.171 27.7898 165.319C10.3864 155.467 0 143.025 0 129.5C0 115.975 10.3864 103.533 27.7898 93.6808C10.3864 83.8286 0 71.3871 0 57.8617C0 25.9056 57.9791 0 129.5 0C201.021 0 259 25.9056 259 57.8617Z"/>
</mask>
<path fill-rule="evenodd" clip-rule="evenodd" d="M259 57.8617C259 71.3871 248.614 83.8286 231.21 93.6808C248.614 103.533 259 115.975 259 129.5C259 143.025 248.614 155.467 231.21 165.319C248.614 175.171 259 187.613 259 201.138C259 233.094 201.021 259 129.5 259C57.9791 259 0 233.094 0 201.138C0 187.613 10.3864 175.171 27.7898 165.319C10.3864 155.467 0 143.025 0 129.5C0 115.975 10.3864 103.533 27.7898 93.6808C10.3864 83.8286 0 71.3871 0 57.8617C0 25.9056 57.9791 0 129.5 0C201.021 0 259 25.9056 259 57.8617Z" fill="#43A047"/>
<path d="M231.21 93.6808L230.225 91.9403L227.15 93.6808L230.225 95.4213L231.21 93.6808ZM231.21 165.319L230.225 163.579L227.15 165.319L230.225 167.059L231.21 165.319ZM27.7898 165.319L28.7751 167.059L31.8496 165.319L28.7751 163.579L27.7898 165.319ZM27.7898 93.6808L28.7751 95.4213L31.8496 93.6808L28.7751 91.9403L27.7898 93.6808ZM232.195 95.4213C249.801 85.4545 261 72.4899 261 57.8617H257C257 70.2843 247.426 82.2028 230.225 91.9403L232.195 95.4213ZM261 129.5C261 114.872 249.801 101.907 232.195 91.9403L230.225 95.4213C247.426 105.159 257 117.077 257 129.5H261ZM232.195 167.059C249.801 157.093 261 144.128 261 129.5H257C257 141.923 247.426 153.841 230.225 163.579L232.195 167.059ZM230.225 167.059C247.426 176.797 257 188.716 257 201.138H261C261 186.51 249.801 173.545 232.195 163.579L230.225 167.059ZM257 201.138C257 208.48 253.678 215.623 247.371 222.286C241.054 228.959 231.818 235.06 220.254 240.227C197.131 250.558 165.046 257 129.5 257V261C165.475 261 198.14 254.489 221.886 243.879C233.757 238.575 243.487 232.207 250.276 225.035C257.074 217.853 261 209.774 261 201.138H257ZM129.5 257C93.9537 257 61.8689 250.558 38.7456 240.227C27.1815 235.06 17.9465 228.959 11.6292 222.286C5.32188 215.623 2 208.48 2 201.138H-2C-2 209.774 1.92551 217.853 8.72431 225.035C15.5132 232.207 25.2429 238.575 37.1138 243.879C60.8603 254.489 93.5254 261 129.5 261V257ZM2 201.138C2 188.716 11.5741 176.797 28.7751 167.059L26.8046 163.579C9.19862 173.545 -2 186.51 -2 201.138H2ZM-2 129.5C-2 144.128 9.19862 157.093 26.8046 167.059L28.7751 163.579C11.5741 153.841 2 141.923 2 129.5H-2ZM26.8046 91.9403C9.19862 101.907 -2 114.872 -2 129.5H2C2 117.077 11.5741 105.159 28.7751 95.4213L26.8046 91.9403ZM-2 57.8617C-2 72.4899 9.19862 85.4545 26.8046 95.4213L28.7751 91.9403C11.5741 82.2028 2 70.2843 2 57.8617H-2ZM129.5 -2C93.5254 -2 60.8603 4.51116 37.1138 15.1213C25.2429 20.4253 15.5132 26.7928 8.72431 33.9644C1.92551 41.1465 -2 49.2256 -2 57.8617H2C2 50.5198 5.32188 43.3771 11.6292 36.7142C17.9465 30.0408 27.1815 23.9402 38.7456 18.7733C61.8689 8.44162 93.9537 2 129.5 2V-2ZM261 57.8617C261 49.2256 257.074 41.1465 250.276 33.9644C243.487 26.7928 233.757 20.4253 221.886 15.1213C198.14 4.51116 165.475 -2 129.5 -2V2C165.046 2 197.131 8.44162 220.254 18.7733C231.818 23.9402 241.054 30.0408 247.371 36.7142C253.678 43.3771 257 50.5198 257 57.8617H261Z" fill="#424242" mask="url(#path-1-inside-1_552_444)"/>
</svg>
