<svg width="1486" height="380" viewBox="0 0 1486 380" fill="none" xmlns="http://www.w3.org/2000/svg">
<path d="M415.956 155.715C396.959 155.715 381.106 153.118 368.396 147.925C355.686 142.732 346.939 134.737 342.156 123.94C339.833 118.747 338.534 112.528 338.261 105.285H383.361C383.498 108.018 384.113 110.547 385.206 112.87C389.033 121.753 399.419 126.195 416.366 126.195C423.609 126.195 429.759 125.375 434.816 123.735C439.873 121.958 443.153 119.498 444.656 116.355C445.339 114.578 445.681 113.007 445.681 111.64C445.681 110.273 445.339 108.77 444.656 107.13C443.426 104.533 440.966 102.347 437.276 100.57C433.586 98.7933 429.349 97.3583 424.566 96.265C419.783 95.1717 413.359 93.8733 405.296 92.37C398.326 91.14 393.543 90.2517 390.946 89.705C377.963 86.9717 367.781 83.555 360.401 79.455C353.021 75.2183 347.691 69.5467 344.411 62.44C342.361 57.93 341.336 52.7367 341.336 46.86C341.336 41.3933 342.361 36.405 344.411 31.895C347.418 25.335 352.269 19.8 358.966 15.29C365.663 10.78 373.794 7.36333 383.361 5.04C392.928 2.71666 403.383 1.55499 414.726 1.55499C432.219 1.55499 447.253 4.28833 459.826 9.755C472.399 15.085 481.009 22.9433 485.656 33.33C488.116 38.25 489.346 43.8533 489.346 50.14H444.246C443.973 46.9967 443.426 44.4683 442.606 42.555C440.829 38.455 437.481 35.38 432.561 33.33C427.778 31.1433 421.696 30.05 414.316 30.05C408.166 30.05 402.699 30.8017 397.916 32.305C393.269 33.6717 390.194 35.9267 388.691 39.07C388.144 40.4367 387.871 41.6667 387.871 42.76C387.871 43.7167 388.144 44.8783 388.691 46.245C389.784 48.705 391.903 50.755 395.046 52.395C398.326 54.035 402.084 55.4017 406.321 56.495C410.694 57.5883 416.708 58.8867 424.361 60.39C428.598 61.0733 432.834 61.8933 437.071 62.85C445.954 64.6267 453.676 66.6767 460.236 69C466.933 71.1867 472.878 74.1933 478.071 78.02C483.264 81.8467 487.091 86.5617 489.551 92.165C491.738 96.5383 492.831 101.937 492.831 108.36C492.831 114.51 491.669 120.25 489.346 125.58C484.836 135.693 476.089 143.278 463.106 148.335C450.259 153.255 434.543 155.715 415.956 155.715ZM513.185 6.26999H556.645V61.825H636.595V6.26999H679.85V151H636.595V95.65H556.645V151H513.185V6.26999ZM794.109 155.715C772.242 155.715 753.656 152.025 738.349 144.645C723.042 137.128 712.177 126.195 705.754 111.845C701.244 102.005 698.989 90.935 698.989 78.635C698.989 67.0183 701.107 56.3583 705.344 46.655C711.904 32.0317 722.906 20.8933 738.349 13.24C753.792 5.44999 772.447 1.55499 794.314 1.55499C808.664 1.55499 821.716 3.26333 833.469 6.67999C845.222 9.96 855.267 14.88 863.604 21.44C871.941 27.8633 878.227 35.79 882.464 45.22C887.111 55.6067 889.434 66.745 889.434 78.635C889.434 91.345 886.974 102.825 882.054 113.075C875.357 127.015 864.356 137.607 849.049 144.85C833.879 152.093 815.566 155.715 794.109 155.715ZM794.314 120.455C805.657 120.455 815.156 118.542 822.809 114.715C830.462 110.752 835.929 104.943 839.209 97.29C841.532 91.96 842.694 85.7417 842.694 78.635C842.694 71.1183 841.396 64.5583 838.799 58.955C835.382 51.575 829.847 46.04 822.194 42.35C814.541 38.66 805.179 36.815 794.109 36.815C783.039 36.815 773.677 38.7283 766.024 42.555C758.507 46.245 753.109 51.78 749.829 59.16C747.369 64.49 746.139 70.9133 746.139 78.43C746.139 85.9467 747.369 92.37 749.829 97.7C753.109 105.08 758.576 110.752 766.229 114.715C774.019 118.542 783.381 120.455 794.314 120.455ZM1162.86 6.26999L1106.9 151H1062.82L1025.72 54.24L988.407 151H944.127L888.162 6.26999H935.517L968.522 97.29L1002.14 6.26999H1048.88L1082.5 97.29L1115.71 6.26999H1162.86ZM497.92 345.715C476.19 345.715 457.603 341.957 442.16 334.44C426.717 326.787 415.715 315.58 409.155 300.82C404.918 291.117 402.8 280.32 402.8 268.43C402.8 256.813 404.918 246.222 409.155 236.655C413.665 226.952 420.157 218.752 428.63 212.055C437.24 205.222 447.422 200.097 459.175 196.68C471.065 193.263 484.048 191.555 498.125 191.555C512.885 191.555 526.552 193.537 539.125 197.5C551.698 201.463 562.153 207.203 570.49 214.72C582.79 225.79 589.487 240.072 590.58 257.565H544.66C543.977 253.875 542.61 250.253 540.56 246.7C538.647 243.147 536.255 240.072 533.385 237.475C529.285 233.785 524.228 231.052 518.215 229.275C512.338 227.498 505.778 226.61 498.535 226.61C487.328 226.61 477.898 228.592 470.245 232.555C462.592 236.382 457.057 242.122 453.64 249.775C451.043 255.652 449.745 261.938 449.745 268.635C449.745 275.878 450.907 282.165 453.23 287.495C456.783 295.148 462.455 300.957 470.245 304.92C478.172 308.747 487.533 310.66 498.33 310.66C505.847 310.66 512.748 309.703 519.035 307.79C525.322 305.877 530.583 302.938 534.82 298.975C537.69 296.378 540.013 293.44 541.79 290.16C543.567 286.88 544.592 283.6 544.865 280.32H590.785C590.238 288.793 588.257 296.583 584.84 303.69C581.56 310.797 576.913 317.083 570.9 322.55C562.563 330.203 552.04 336.012 539.33 339.975C526.757 343.802 512.953 345.715 497.92 345.715ZM724.581 313.12H644.221L631.511 341H584.566L654.266 196.27H714.331L783.826 341H737.291L724.581 313.12ZM710.641 282.37L684.401 224.97H683.991L657.956 282.37H710.641ZM859.088 345.715C840.092 345.715 824.238 343.118 811.528 337.925C798.818 332.732 790.072 324.737 785.288 313.94C782.965 308.747 781.667 302.528 781.393 295.285H826.493C826.63 298.018 827.245 300.547 828.338 302.87C832.165 311.753 842.552 316.195 859.498 316.195C866.742 316.195 872.892 315.375 877.948 313.735C883.005 311.958 886.285 309.498 887.788 306.355C888.472 304.578 888.813 303.007 888.813 301.64C888.813 300.273 888.472 298.77 887.788 297.13C886.558 294.533 884.098 292.347 880.408 290.57C876.718 288.793 872.482 287.358 867.698 286.265C862.915 285.172 856.492 283.873 848.428 282.37C841.458 281.14 836.675 280.252 834.078 279.705C821.095 276.972 810.913 273.555 803.533 269.455C796.153 265.218 790.823 259.547 787.543 252.44C785.493 247.93 784.468 242.737 784.468 236.86C784.468 231.393 785.493 226.405 787.543 221.895C790.55 215.335 795.402 209.8 802.098 205.29C808.795 200.78 816.927 197.363 826.493 195.04C836.06 192.717 846.515 191.555 857.858 191.555C875.352 191.555 890.385 194.288 902.958 199.755C915.532 205.085 924.142 212.943 928.788 223.33C931.248 228.25 932.478 233.853 932.478 240.14H887.378C887.105 236.997 886.558 234.468 885.738 232.555C883.962 228.455 880.613 225.38 875.693 223.33C870.91 221.143 864.828 220.05 857.448 220.05C851.298 220.05 845.832 220.802 841.048 222.305C836.402 223.672 833.327 225.927 831.823 229.07C831.277 230.437 831.003 231.667 831.003 232.76C831.003 233.717 831.277 234.878 831.823 236.245C832.917 238.705 835.035 240.755 838.178 242.395C841.458 244.035 845.217 245.402 849.453 246.495C853.827 247.588 859.84 248.887 867.493 250.39C871.73 251.073 875.967 251.893 880.203 252.85C889.087 254.627 896.808 256.677 903.368 259C910.065 261.187 916.01 264.193 921.203 268.02C926.397 271.847 930.223 276.562 932.683 282.165C934.87 286.538 935.963 291.937 935.963 298.36C935.963 304.51 934.802 310.25 932.478 315.58C927.968 325.693 919.222 333.278 906.238 338.335C893.392 343.255 877.675 345.715 859.088 345.715ZM956.318 196.27H1084.24V228.25H999.778V253.26H1083.62V283.805H999.778V309.02H1084.24V341H956.318V196.27Z" fill="#F0F4C3"/>
<rect x="1" y="32" width="100" height="100" stroke="#F0F4C3" stroke-width="2"/>
<rect width="100" height="100" transform="matrix(-1 0 0 1 1485 32)" stroke="#F0F4C3" stroke-width="2"/>
<rect x="1" y="132" width="100" height="100" stroke="#F0F4C3" stroke-width="2"/>
<rect width="100" height="100" transform="matrix(-1 0 0 1 1485 132)" stroke="#F0F4C3" stroke-width="2"/>
<rect x="1" y="232" width="100" height="100" stroke="#F0F4C3" stroke-width="2"/>
<rect x="-1" y="1" width="198" height="98" rx="49" transform="matrix(-1 0 0 1 1483 232)" fill="#43A047" stroke="#F0F4C3" stroke-width="2"/>
<rect x="101" y="132" width="100" height="100" stroke="#F0F4C3" stroke-width="2"/>
<rect width="100" height="100" transform="matrix(-1 0 0 1 1385 132)" stroke="#F0F4C3" stroke-width="2"/>
<rect x="101" y="232" width="100" height="100" stroke="#F0F4C3" stroke-width="2"/>
<rect x="201" y="232" width="100" height="100" stroke="#F0F4C3" stroke-width="2"/>
<rect width="100" height="100" transform="matrix(-1 0 0 1 1285 232)" stroke="#F0F4C3" stroke-width="2"/>
<path d="M126 32C112.193 32 101 43.1929 101 57C101 70.8071 112.193 82 126 82C112.193 82 101 93.1929 101 107C101 120.807 112.193 132 126 132C139.807 132 151 120.807 151 107C151 120.807 162.193 132 176 132C189.807 132 201 120.807 201 107C201 93.1929 189.807 82 176 82C189.807 82 201 70.8071 201 57C201 43.1929 189.807 32 176 32C162.193 32 151 43.1929 151 57C151 43.1929 139.807 32 126 32Z" fill="#9BB7FF" stroke="#F0F4C3" stroke-width="2"/>
<path d="M1335 33.4142L1383.59 82L1335 130.586L1286.41 82L1335 33.4142Z" fill="#F0F4C3" stroke="#F0F4C3" stroke-width="2"/>
<mask id="path-15-inside-1_1_26" fill="white">
<path fill-rule="evenodd" clip-rule="evenodd" d="M301 154.34C301 159.563 296.99 164.366 290.27 168.17C296.99 171.974 301 176.778 301 182C301 187.222 296.99 192.026 290.27 195.83C296.99 199.634 301 204.437 301 209.659C301 221.998 278.614 232 251 232C223.386 232 201 221.998 201 209.659C201 204.437 205.01 199.634 211.73 195.83C205.01 192.026 201 187.222 201 182C201 176.778 205.01 171.974 211.73 168.17C205.01 164.366 201 159.563 201 154.34C201 142.002 223.386 132 251 132C278.614 132 301 142.002 301 154.34Z"/>
</mask>
<path fill-rule="evenodd" clip-rule="evenodd" d="M301 154.34C301 159.563 296.99 164.366 290.27 168.17C296.99 171.974 301 176.778 301 182C301 187.222 296.99 192.026 290.27 195.83C296.99 199.634 301 204.437 301 209.659C301 221.998 278.614 232 251 232C223.386 232 201 221.998 201 209.659C201 204.437 205.01 199.634 211.73 195.83C205.01 192.026 201 187.222 201 182C201 176.778 205.01 171.974 211.73 168.17C205.01 164.366 201 159.563 201 154.34C201 142.002 223.386 132 251 132C278.614 132 301 142.002 301 154.34Z" fill="#43A047"/>
<path d="M290.27 168.17L289.285 166.43L286.211 168.17L289.285 169.911L290.27 168.17ZM290.27 195.83L289.285 194.089L286.211 195.83L289.285 197.57L290.27 195.83ZM211.73 195.83L212.715 197.57L215.789 195.83L212.715 194.089L211.73 195.83ZM211.73 168.17L212.715 169.911L215.789 168.17L212.715 166.43L211.73 168.17ZM291.256 169.911C298.178 165.992 303 160.665 303 154.34H299C299 158.46 295.802 162.74 289.285 166.43L291.256 169.911ZM303 182C303 175.675 298.178 170.348 291.256 166.43L289.285 169.911C295.802 173.6 299 177.881 299 182H303ZM291.256 197.57C298.178 193.652 303 188.325 303 182H299C299 186.119 295.802 190.4 289.285 194.089L291.256 197.57ZM289.285 197.57C295.802 201.26 299 205.54 299 209.659H303C303 203.335 298.178 198.008 291.256 194.089L289.285 197.57ZM299 209.659C299 212.097 297.903 214.567 295.618 216.98C293.324 219.404 289.91 221.678 285.539 223.631C276.803 227.534 264.593 230 251 230V234C265.021 234 277.811 231.465 287.171 227.283C291.849 225.193 295.757 222.652 298.523 219.73C301.299 216.798 303 213.391 303 209.659H299ZM251 230C237.407 230 225.197 227.534 216.461 223.631C212.09 221.678 208.676 219.404 206.382 216.98C204.097 214.567 203 212.097 203 209.659H199C199 213.391 200.701 216.798 203.477 219.73C206.243 222.652 210.151 225.193 214.829 227.283C224.189 231.465 236.979 234 251 234V230ZM203 209.659C203 205.54 206.198 201.26 212.715 197.57L210.744 194.089C203.822 198.008 199 203.335 199 209.659H203ZM199 182C199 188.325 203.822 193.652 210.744 197.57L212.715 194.089C206.198 190.4 203 186.119 203 182H199ZM210.744 166.43C203.822 170.348 199 175.675 199 182H203C203 177.881 206.198 173.6 212.715 169.911L210.744 166.43ZM199 154.34C199 160.665 203.822 165.992 210.744 169.911L212.715 166.43C206.198 162.74 203 158.46 203 154.34H199ZM251 130C236.979 130 224.189 132.535 214.829 136.717C210.151 138.807 206.243 141.348 203.477 144.27C200.701 147.202 199 150.609 199 154.34H203C203 151.903 204.097 149.433 206.382 147.019C208.676 144.596 212.09 142.322 216.461 140.369C225.197 136.466 237.407 134 251 134V130ZM303 154.34C303 150.609 301.299 147.202 298.523 144.27C295.757 141.348 291.849 138.807 287.171 136.717C277.811 132.535 265.021 130 251 130V134C264.593 134 276.803 136.466 285.539 140.369C289.91 142.322 293.324 144.596 295.618 147.019C297.903 149.433 299 151.903 299 154.34H303Z" fill="#F0F4C3" mask="url(#path-15-inside-1_1_26)"/>
</svg>
