<svg width="297" height="124" viewBox="0 0 297 124" fill="none" xmlns="http://www.w3.org/2000/svg">
<path d="M66.62 24.14V25.05C66.62 27.8967 66.41 30.3467 65.99 32.4C65.6167 34.4067 64.94 36.46 63.96 38.56C61.6733 43.5533 57.94 47.31 52.76 49.83C47.6267 52.35 41.42 53.61 34.14 53.61C29.1933 53.61 24.6433 53.05 20.49 51.93C16.3833 50.81 12.8367 49.13 9.85 46.89C6.86333 44.65 4.64667 41.8967 3.2 38.63C1.70667 35.27 0.96 31.49 0.96 27.29C0.96 23.37 1.77667 19.59 3.41 15.95C5.69667 10.9567 9.5 7.22333 14.82 4.75C20.1867 2.23 26.6733 0.969998 34.28 0.969998C39.46 0.969998 44.1967 1.62333 48.49 2.93C52.7833 4.19 56.3767 6.15 59.27 8.81C60.95 10.2567 62.4433 12.03 63.75 14.13C65.0567 16.23 65.8967 18.26 66.27 20.22H49.96C49.3533 18.6333 48.4667 17.3033 47.3 16.23C45.8533 14.97 44.0333 14.06 41.84 13.5C39.6467 12.8933 37.2433 12.59 34.63 12.59C30.6167 12.59 27.1867 13.2667 24.34 14.62C21.4933 15.9733 19.4867 17.98 18.32 20.64C17.8533 21.62 17.5267 22.6233 17.34 23.65C17.1533 24.6767 17.06 25.8667 17.06 27.22C17.06 29.7867 17.4567 32.0033 18.25 33.87C19.4633 36.53 21.47 38.56 24.27 39.96C27.1167 41.36 30.5 42.06 34.42 42.06C38.2 42.06 41.49 41.5233 44.29 40.45C47.1367 39.33 49.0967 37.6033 50.17 35.27L50.66 33.87H33.79V24.14H66.62ZM73.0715 2.58H87.9115V52H73.0715V2.58ZM114.287 34.71H111.837V52H96.9973V2.58H126.677C131.204 2.58 135.054 3.37333 138.227 4.96C141.401 6.54666 143.641 8.83333 144.947 11.82C145.881 13.78 146.347 16.09 146.347 18.75C146.347 21.5967 145.881 24.07 144.947 26.17C143.874 28.55 142.241 30.44 140.047 31.84C137.854 33.24 135.101 34.1267 131.787 34.5L150.197 52H131.647L114.287 34.71ZM111.837 13.01V25.82H122.687C124.881 25.82 126.677 25.5633 128.077 25.05C129.477 24.49 130.434 23.6033 130.947 22.39C131.321 21.55 131.507 20.5467 131.507 19.38C131.507 18.4 131.344 17.5133 131.017 16.72C129.897 14.2467 127.121 13.01 122.687 13.01H111.837ZM154.966 2.58H169.806V40.03H189.056V52H154.966V2.58ZM218.289 53.61C211.803 53.61 206.389 52.7233 202.049 50.95C197.709 49.1767 194.723 46.4467 193.089 42.76C192.296 40.9867 191.853 38.8633 191.759 36.39H207.159C207.206 37.3233 207.416 38.1867 207.789 38.98C209.096 42.0133 212.643 43.53 218.429 43.53C220.903 43.53 223.003 43.25 224.729 42.69C226.456 42.0833 227.576 41.2433 228.089 40.17C228.323 39.5633 228.439 39.0267 228.439 38.56C228.439 38.0933 228.323 37.58 228.089 37.02C227.669 36.1333 226.829 35.3867 225.569 34.78C224.309 34.1733 222.863 33.6833 221.229 33.31C219.596 32.9367 217.403 32.4933 214.649 31.98C212.269 31.56 210.636 31.2567 209.749 31.07C205.316 30.1367 201.839 28.97 199.319 27.57C196.799 26.1233 194.979 24.1867 193.859 21.76C193.159 20.22 192.809 18.4467 192.809 16.44C192.809 14.5733 193.159 12.87 193.859 11.33C194.886 9.09 196.543 7.2 198.829 5.66C201.116 4.12 203.893 2.95333 207.159 2.16C210.426 1.36666 213.996 0.969998 217.869 0.969998C223.843 0.969998 228.976 1.90333 233.269 3.77C237.563 5.59 240.503 8.27333 242.089 11.82C242.929 13.5 243.349 15.4133 243.349 17.56H227.949C227.856 16.4867 227.669 15.6233 227.389 14.97C226.783 13.57 225.639 12.52 223.959 11.82C222.326 11.0733 220.249 10.7 217.729 10.7C215.629 10.7 213.763 10.9567 212.129 11.47C210.543 11.9367 209.493 12.7067 208.979 13.78C208.793 14.2467 208.699 14.6667 208.699 15.04C208.699 15.3667 208.793 15.7633 208.979 16.23C209.353 17.07 210.076 17.77 211.149 18.33C212.269 18.89 213.553 19.3567 214.999 19.73C216.493 20.1033 218.546 20.5467 221.159 21.06C222.606 21.2933 224.053 21.5733 225.499 21.9C228.533 22.5067 231.169 23.2067 233.409 24C235.696 24.7467 237.726 25.7733 239.499 27.08C241.273 28.3867 242.579 29.9967 243.419 31.91C244.166 33.4033 244.539 35.2467 244.539 37.44C244.539 39.54 244.143 41.5 243.349 43.32C241.809 46.7733 238.823 49.3633 234.389 51.09C230.003 52.77 224.636 53.61 218.289 53.61ZM20.84 104.71H18.39V122H3.55V72.58H33.23C37.7567 72.58 41.6067 73.3733 44.78 74.96C47.9533 76.5467 50.1933 78.8333 51.5 81.82C52.4333 83.78 52.9 86.09 52.9 88.75C52.9 91.5967 52.4333 94.07 51.5 96.17C50.4267 98.55 48.7933 100.44 46.6 101.84C44.4067 103.24 41.6533 104.127 38.34 104.5L56.75 122H38.2L20.84 104.71ZM18.39 83.01V95.82H29.24C31.4333 95.82 33.23 95.5633 34.63 95.05C36.03 94.49 36.9867 93.6033 37.5 92.39C37.8733 91.55 38.06 90.5467 38.06 89.38C38.06 88.4 37.8967 87.5133 37.57 86.72C36.45 84.2467 33.6733 83.01 29.24 83.01H18.39ZM61.5188 72.58H76.3588V122H61.5188V72.58ZM109.735 123.61C103.248 123.61 97.8345 122.723 93.4945 120.95C89.1545 119.177 86.1679 116.447 84.5345 112.76C83.7412 110.987 83.2979 108.863 83.2045 106.39H98.6045C98.6512 107.323 98.8612 108.187 99.2345 108.98C100.541 112.013 104.088 113.53 109.875 113.53C112.348 113.53 114.448 113.25 116.175 112.69C117.901 112.083 119.021 111.243 119.535 110.17C119.768 109.563 119.885 109.027 119.885 108.56C119.885 108.093 119.768 107.58 119.535 107.02C119.115 106.133 118.275 105.387 117.015 104.78C115.755 104.173 114.308 103.683 112.675 103.31C111.041 102.937 108.848 102.493 106.095 101.98C103.715 101.56 102.081 101.257 101.195 101.07C96.7612 100.137 93.2845 98.97 90.7645 97.57C88.2445 96.1233 86.4245 94.1867 85.3045 91.76C84.6045 90.22 84.2545 88.4467 84.2545 86.44C84.2545 84.5733 84.6045 82.87 85.3045 81.33C86.3312 79.09 87.9879 77.2 90.2745 75.66C92.5612 74.12 95.3379 72.9533 98.6045 72.16C101.871 71.3667 105.441 70.97 109.315 70.97C115.288 70.97 120.421 71.9033 124.715 73.77C129.008 75.59 131.948 78.2733 133.535 81.82C134.375 83.5 134.795 85.4133 134.795 87.56H119.395C119.301 86.4867 119.115 85.6233 118.835 84.97C118.228 83.57 117.085 82.52 115.405 81.82C113.771 81.0733 111.695 80.7 109.175 80.7C107.075 80.7 105.208 80.9567 103.575 81.47C101.988 81.9367 100.938 82.7067 100.425 83.78C100.238 84.2467 100.145 84.6667 100.145 85.04C100.145 85.3667 100.238 85.7633 100.425 86.23C100.798 87.07 101.521 87.77 102.595 88.33C103.715 88.89 104.998 89.3567 106.445 89.73C107.938 90.1033 109.991 90.5467 112.605 91.06C114.051 91.2933 115.498 91.5733 116.945 91.9C119.978 92.5067 122.615 93.2067 124.855 94C127.141 94.7467 129.171 95.7733 130.945 97.08C132.718 98.3867 134.025 99.9967 134.865 101.91C135.611 103.403 135.985 105.247 135.985 107.44C135.985 109.54 135.588 111.5 134.795 113.32C133.255 116.773 130.268 119.363 125.835 121.09C121.448 122.77 116.081 123.61 109.735 123.61ZM142.935 72.58H157.775V122H142.935V72.58ZM166.861 72.58H183.241L209.631 105.2V72.58H224.191V122H207.321L181.491 90.22V122H166.861V72.58ZM296.376 94.14V95.05C296.376 97.8967 296.166 100.347 295.746 102.4C295.373 104.407 294.696 106.46 293.716 108.56C291.429 113.553 287.696 117.31 282.516 119.83C277.383 122.35 271.176 123.61 263.896 123.61C258.949 123.61 254.399 123.05 250.246 121.93C246.139 120.81 242.593 119.13 239.606 116.89C236.619 114.65 234.403 111.897 232.956 108.63C231.463 105.27 230.716 101.49 230.716 97.29C230.716 93.37 231.533 89.59 233.166 85.95C235.453 80.9567 239.256 77.2233 244.576 74.75C249.943 72.23 256.429 70.97 264.036 70.97C269.216 70.97 273.953 71.6233 278.246 72.93C282.539 74.19 286.133 76.15 289.026 78.81C290.706 80.2567 292.199 82.03 293.506 84.13C294.813 86.23 295.653 88.26 296.026 90.22H279.716C279.109 88.6333 278.223 87.3033 277.056 86.23C275.609 84.97 273.789 84.06 271.596 83.5C269.403 82.8933 266.999 82.59 264.386 82.59C260.373 82.59 256.943 83.2667 254.096 84.62C251.249 85.9733 249.243 87.98 248.076 90.64C247.609 91.62 247.283 92.6233 247.096 93.65C246.909 94.6767 246.816 95.8667 246.816 97.22C246.816 99.7867 247.213 102.003 248.006 103.87C249.219 106.53 251.226 108.56 254.026 109.96C256.873 111.36 260.256 112.06 264.176 112.06C267.956 112.06 271.246 111.523 274.046 110.45C276.893 109.33 278.853 107.603 279.926 105.27L280.416 103.87H263.546V94.14H296.376Z" fill="#F0F4C3"/>
</svg>
