<svg width="667" height="192" viewBox="0 0 667 192" fill="none" xmlns="http://www.w3.org/2000/svg">
<path d="M41 50L18.39 27.95V50H3.55V0.579998H18.39V19.13L38.69 0.579998H57.59L32.04 23.26L60.25 50H41ZM108.717 40.48H81.2773L76.9373 50H60.9073L84.7073 0.579998H105.217L128.947 50H113.057L108.717 40.48ZM103.957 29.98L94.9973 10.38H94.8573L85.9673 29.98H103.957ZM150.381 32.71H147.931V50H133.091V0.579998H162.771C167.298 0.579998 171.148 1.37333 174.321 2.96C177.494 4.54666 179.734 6.83333 181.041 9.82C181.974 11.78 182.441 14.09 182.441 16.75C182.441 19.5967 181.974 22.07 181.041 24.17C179.968 26.55 178.334 28.44 176.141 29.84C173.948 31.24 171.194 32.1267 167.881 32.5L186.291 50H167.741L150.381 32.71ZM147.931 11.01V23.82H158.781C160.974 23.82 162.771 23.5633 164.171 23.05C165.571 22.49 166.528 21.6033 167.041 20.39C167.414 19.55 167.601 18.5467 167.601 17.38C167.601 16.4 167.438 15.5133 167.111 14.72C165.991 12.2467 163.214 11.01 158.781 11.01H147.931ZM191.06 0.579998H234.74V11.5H205.9V20.04H234.53V30.47H205.9V39.08H234.74V50H191.06V0.579998ZM242.603 0.579998H258.983L285.373 33.2V0.579998H299.933V50H283.063L257.233 18.22V50H242.603V0.579998ZM33.44 121.61C25.9733 121.61 19.6267 120.35 14.4 117.83C9.17333 115.263 5.46333 111.53 3.27 106.63C1.73 103.27 0.96 99.49 0.96 95.29C0.96 91.3233 1.68333 87.6833 3.13 84.37C5.37 79.3767 9.12667 75.5733 14.4 72.96C19.6733 70.3 26.0433 68.97 33.51 68.97C38.41 68.97 42.8667 69.5533 46.88 70.72C50.8933 71.84 54.3233 73.52 57.17 75.76C60.0167 77.9533 62.1633 80.66 63.61 83.88C65.1967 87.4267 65.99 91.23 65.99 95.29C65.99 99.63 65.15 103.55 63.47 107.05C61.1833 111.81 57.4267 115.427 52.2 117.9C47.02 120.373 40.7667 121.61 33.44 121.61ZM33.51 109.57C37.3833 109.57 40.6267 108.917 43.24 107.61C45.8533 106.257 47.72 104.273 48.84 101.66C49.6333 99.84 50.03 97.7167 50.03 95.29C50.03 92.7233 49.5867 90.4833 48.7 88.57C47.5333 86.05 45.6433 84.16 43.03 82.9C40.4167 81.64 37.22 81.01 33.44 81.01C29.66 81.01 26.4633 81.6633 23.85 82.97C21.2833 84.23 19.44 86.12 18.32 88.64C17.48 90.46 17.06 92.6533 17.06 95.22C17.06 97.7867 17.48 99.98 18.32 101.8C19.44 104.32 21.3067 106.257 23.92 107.61C26.58 108.917 29.7767 109.57 33.51 109.57ZM89.8146 102.71H87.3646V120H72.5246V70.58H102.205C106.731 70.58 110.581 71.3733 113.755 72.96C116.928 74.5467 119.168 76.8333 120.475 79.82C121.408 81.78 121.875 84.09 121.875 86.75C121.875 89.5967 121.408 92.07 120.475 94.17C119.401 96.55 117.768 98.44 115.575 99.84C113.381 101.24 110.628 102.127 107.315 102.5L125.725 120H107.175L89.8146 102.71ZM87.3646 81.01V93.82H98.2146C100.408 93.82 102.205 93.5633 103.605 93.05C105.005 92.49 105.961 91.6033 106.475 90.39C106.848 89.55 107.035 88.5467 107.035 87.38C107.035 86.4 106.871 85.5133 106.545 84.72C105.425 82.2467 102.648 81.01 98.2146 81.01H87.3646ZM192.128 92.14V93.05C192.128 95.8967 191.918 98.3467 191.498 100.4C191.124 102.407 190.448 104.46 189.468 106.56C187.181 111.553 183.448 115.31 178.268 117.83C173.134 120.35 166.928 121.61 159.648 121.61C154.701 121.61 150.151 121.05 145.998 119.93C141.891 118.81 138.344 117.13 135.358 114.89C132.371 112.65 130.154 109.897 128.708 106.63C127.214 103.27 126.468 99.49 126.468 95.29C126.468 91.37 127.284 87.59 128.918 83.95C131.204 78.9567 135.008 75.2233 140.328 72.75C145.694 70.23 152.181 68.97 159.788 68.97C164.968 68.97 169.704 69.6233 173.998 70.93C178.291 72.19 181.884 74.15 184.778 76.81C186.458 78.2567 187.951 80.03 189.258 82.13C190.564 84.23 191.404 86.26 191.778 88.22H175.468C174.861 86.6333 173.974 85.3033 172.808 84.23C171.361 82.97 169.541 82.06 167.348 81.5C165.154 80.8933 162.751 80.59 160.138 80.59C156.124 80.59 152.694 81.2667 149.848 82.62C147.001 83.9733 144.994 85.98 143.828 88.64C143.361 89.62 143.034 90.6233 142.848 91.65C142.661 92.6767 142.568 93.8667 142.568 95.22C142.568 97.7867 142.964 100.003 143.758 101.87C144.971 104.53 146.978 106.56 149.778 107.96C152.624 109.36 156.008 110.06 159.928 110.06C163.708 110.06 166.998 109.523 169.798 108.45C172.644 107.33 174.604 105.603 175.678 103.27L176.168 101.87H159.298V92.14H192.128ZM237.301 110.48H209.861L205.521 120H189.491L213.291 70.58H233.801L257.531 120H241.641L237.301 110.48ZM232.541 99.98L223.581 80.38H223.441L214.551 99.98H232.541ZM261.675 70.58H278.055L304.445 103.2V70.58H319.005V120H302.135L276.305 88.22V120H261.675V70.58ZM328.12 70.58H342.96V120H328.12V70.58ZM377.176 82.13H349.386V70.58H402.726L374.446 108.38H402.376V120H348.126L377.176 82.13ZM452.36 110.48H424.92L420.58 120H404.55L428.35 70.58H448.86L472.59 120H456.7L452.36 110.48ZM447.6 99.98L438.64 80.38H438.5L429.61 99.98H447.6ZM480.824 82.13H465.774V70.58H510.644V82.13H495.664V120H480.824V82.13ZM515.972 70.58H530.812V120H515.972V70.58ZM569.788 121.61C562.321 121.61 555.974 120.35 550.748 117.83C545.521 115.263 541.811 111.53 539.618 106.63C538.078 103.27 537.308 99.49 537.308 95.29C537.308 91.3233 538.031 87.6833 539.478 84.37C541.718 79.3767 545.474 75.5733 550.748 72.96C556.021 70.3 562.391 68.97 569.858 68.97C574.758 68.97 579.214 69.5533 583.228 70.72C587.241 71.84 590.671 73.52 593.518 75.76C596.364 77.9533 598.511 80.66 599.958 83.88C601.544 87.4267 602.338 91.23 602.338 95.29C602.338 99.63 601.498 103.55 599.818 107.05C597.531 111.81 593.774 115.427 588.548 117.9C583.368 120.373 577.114 121.61 569.788 121.61ZM569.858 109.57C573.731 109.57 576.974 108.917 579.588 107.61C582.201 106.257 584.068 104.273 585.188 101.66C585.981 99.84 586.378 97.7167 586.378 95.29C586.378 92.7233 585.934 90.4833 585.048 88.57C583.881 86.05 581.991 84.16 579.378 82.9C576.764 81.64 573.568 81.01 569.788 81.01C566.008 81.01 562.811 81.6633 560.198 82.97C557.631 84.23 555.788 86.12 554.668 88.64C553.828 90.46 553.408 92.6533 553.408 95.22C553.408 97.7867 553.828 99.98 554.668 101.8C555.788 104.32 557.654 106.257 560.268 107.61C562.928 108.917 566.124 109.57 569.858 109.57ZM608.872 70.58H625.252L651.642 103.2V70.58H666.202V120H649.332L623.502 88.22V120H608.872V70.58ZM33.44 191.61C25.9733 191.61 19.6267 190.35 14.4 187.83C9.17333 185.263 5.46333 181.53 3.27 176.63C1.73 173.27 0.96 169.49 0.96 165.29C0.96 161.323 1.68333 157.683 3.13 154.37C5.37 149.377 9.12667 145.573 14.4 142.96C19.6733 140.3 26.0433 138.97 33.51 138.97C38.41 138.97 42.8667 139.553 46.88 140.72C50.8933 141.84 54.3233 143.52 57.17 145.76C60.0167 147.953 62.1633 150.66 63.61 153.88C65.1967 157.427 65.99 161.23 65.99 165.29C65.99 169.63 65.15 173.55 63.47 177.05C61.1833 181.81 57.4267 185.427 52.2 187.9C47.02 190.373 40.7667 191.61 33.44 191.61ZM33.51 179.57C37.3833 179.57 40.6267 178.917 43.24 177.61C45.8533 176.257 47.72 174.273 48.84 171.66C49.6333 169.84 50.03 167.717 50.03 165.29C50.03 162.723 49.5867 160.483 48.7 158.57C47.5333 156.05 45.6433 154.16 43.03 152.9C40.4167 151.64 37.22 151.01 33.44 151.01C29.66 151.01 26.4633 151.663 23.85 152.97C21.2833 154.23 19.44 156.12 18.32 158.64C17.48 160.46 17.06 162.653 17.06 165.22C17.06 167.787 17.48 169.98 18.32 171.8C19.44 174.32 21.3067 176.257 23.92 177.61C26.58 178.917 29.7767 179.57 33.51 179.57ZM72.5246 140.58H109.485V152.06H87.3646V160.11H109.345V170.89H87.3646V190H72.5246V140.58ZM156.629 191.61C150.142 191.61 144.729 190.723 140.389 188.95C136.049 187.177 133.062 184.447 131.429 180.76C130.636 178.987 130.192 176.863 130.099 174.39H145.499C145.546 175.323 145.756 176.187 146.129 176.98C147.436 180.013 150.982 181.53 156.769 181.53C159.242 181.53 161.342 181.25 163.069 180.69C164.796 180.083 165.916 179.243 166.429 178.17C166.662 177.563 166.779 177.027 166.779 176.56C166.779 176.093 166.662 175.58 166.429 175.02C166.009 174.133 165.169 173.387 163.909 172.78C162.649 172.173 161.202 171.683 159.569 171.31C157.936 170.937 155.742 170.493 152.989 169.98C150.609 169.56 148.976 169.257 148.089 169.07C143.656 168.137 140.179 166.97 137.659 165.57C135.139 164.123 133.319 162.187 132.199 159.76C131.499 158.22 131.149 156.447 131.149 154.44C131.149 152.573 131.499 150.87 132.199 149.33C133.226 147.09 134.882 145.2 137.169 143.66C139.456 142.12 142.232 140.953 145.499 140.16C148.766 139.367 152.336 138.97 156.209 138.97C162.182 138.97 167.316 139.903 171.609 141.77C175.902 143.59 178.842 146.273 180.429 149.82C181.269 151.5 181.689 153.413 181.689 155.56H166.289C166.196 154.487 166.009 153.623 165.729 152.97C165.122 151.57 163.979 150.52 162.299 149.82C160.666 149.073 158.589 148.7 156.069 148.7C153.969 148.7 152.102 148.957 150.469 149.47C148.882 149.937 147.832 150.707 147.319 151.78C147.132 152.247 147.039 152.667 147.039 153.04C147.039 153.367 147.132 153.763 147.319 154.23C147.692 155.07 148.416 155.77 149.489 156.33C150.609 156.89 151.892 157.357 153.339 157.73C154.832 158.103 156.886 158.547 159.499 159.06C160.946 159.293 162.392 159.573 163.839 159.9C166.872 160.507 169.509 161.207 171.749 162C174.036 162.747 176.066 163.773 177.839 165.08C179.612 166.387 180.919 167.997 181.759 169.91C182.506 171.403 182.879 173.247 182.879 175.44C182.879 177.54 182.482 179.5 181.689 181.32C180.149 184.773 177.162 187.363 172.729 189.09C168.342 190.77 162.976 191.61 156.629 191.61ZM230.67 180.48H203.23L198.89 190H182.86L206.66 140.58H227.17L250.9 190H235.01L230.67 180.48ZM225.91 169.98L216.95 150.38H216.81L207.92 169.98H225.91ZM255.044 140.58H271.424L297.814 173.2V140.58H312.374V190H295.504L269.674 158.22V190H255.044V140.58ZM337.622 140.58H366.532C373.626 140.58 379.529 141.747 384.242 144.08C388.956 146.413 392.339 149.937 394.392 154.65C395.792 157.823 396.492 161.37 396.492 165.29C396.492 169.397 395.792 172.99 394.392 176.07C392.292 180.737 388.886 184.237 384.172 186.57C379.459 188.857 373.579 190 366.532 190H337.622V140.58ZM365.482 178.31C372.622 178.31 377.266 176.047 379.412 171.52C380.159 169.887 380.532 167.81 380.532 165.29C380.532 162.863 380.136 160.74 379.342 158.92C378.316 156.68 376.659 155.023 374.372 153.95C372.086 152.877 369.122 152.34 365.482 152.34H352.462V178.31H365.482ZM402.974 140.58H417.814V190H402.974V140.58ZM426.9 140.58H470.58V151.5H441.74V160.04H470.37V170.47H441.74V179.08H470.58V190H426.9V140.58ZM541.513 162.14V163.05C541.513 165.897 541.303 168.347 540.883 170.4C540.509 172.407 539.833 174.46 538.853 176.56C536.566 181.553 532.833 185.31 527.653 187.83C522.519 190.35 516.313 191.61 509.033 191.61C504.086 191.61 499.536 191.05 495.383 189.93C491.276 188.81 487.729 187.13 484.743 184.89C481.756 182.65 479.539 179.897 478.093 176.63C476.599 173.27 475.853 169.49 475.853 165.29C475.853 161.37 476.669 157.59 478.303 153.95C480.589 148.957 484.393 145.223 489.713 142.75C495.079 140.23 501.566 138.97 509.173 138.97C514.353 138.97 519.089 139.623 523.383 140.93C527.676 142.19 531.269 144.15 534.163 146.81C535.843 148.257 537.336 150.03 538.643 152.13C539.949 154.23 540.789 156.26 541.163 158.22H524.853C524.246 156.633 523.359 155.303 522.193 154.23C520.746 152.97 518.926 152.06 516.733 151.5C514.539 150.893 512.136 150.59 509.523 150.59C505.509 150.59 502.079 151.267 499.233 152.62C496.386 153.973 494.379 155.98 493.213 158.64C492.746 159.62 492.419 160.623 492.233 161.65C492.046 162.677 491.953 163.867 491.953 165.22C491.953 167.787 492.349 170.003 493.143 171.87C494.356 174.53 496.363 176.56 499.163 177.96C502.009 179.36 505.393 180.06 509.313 180.06C513.093 180.06 516.383 179.523 519.183 178.45C522.029 177.33 523.989 175.603 525.063 173.27L525.553 171.87H508.683V162.14H541.513ZM577.922 191.61C570.456 191.61 564.109 190.35 558.882 187.83C553.656 185.263 549.946 181.53 547.752 176.63C546.212 173.27 545.442 169.49 545.442 165.29C545.442 161.323 546.166 157.683 547.612 154.37C549.852 149.377 553.609 145.573 558.882 142.96C564.156 140.3 570.526 138.97 577.992 138.97C582.892 138.97 587.349 139.553 591.362 140.72C595.376 141.84 598.806 143.52 601.652 145.76C604.499 147.953 606.646 150.66 608.092 153.88C609.679 157.427 610.472 161.23 610.472 165.29C610.472 169.63 609.632 173.55 607.952 177.05C605.666 181.81 601.909 185.427 596.682 187.9C591.502 190.373 585.249 191.61 577.922 191.61ZM577.992 179.57C581.866 179.57 585.109 178.917 587.722 177.61C590.336 176.257 592.202 174.273 593.322 171.66C594.116 169.84 594.512 167.717 594.512 165.29C594.512 162.723 594.069 160.483 593.182 158.57C592.016 156.05 590.126 154.16 587.512 152.9C584.899 151.64 581.702 151.01 577.922 151.01C574.142 151.01 570.946 151.663 568.332 152.97C565.766 154.23 563.922 156.12 562.802 158.64C561.962 160.46 561.542 162.653 561.542 165.22C561.542 167.787 561.962 169.98 562.802 171.8C563.922 174.32 565.789 176.257 568.402 177.61C571.062 178.917 574.259 179.57 577.992 179.57Z" fill="#F0F4C3"/>
</svg>
