<svg width="563" height="194" viewBox="0 0 563 194" fill="none" xmlns="http://www.w3.org/2000/svg">
<path d="M3.55 2.58H18.39V40.03H37.64V52H3.55V2.58ZM87.0474 42.48H59.6074L55.2674 52H39.2374L63.0374 2.58H83.5474L107.277 52H91.3874L87.0474 42.48ZM82.2874 31.98L73.3274 12.38H73.1874L64.2974 31.98H82.2874ZM156.829 53.61C149.409 53.61 143.062 52.3267 137.789 49.76C132.515 47.1467 128.759 43.32 126.519 38.28C125.072 34.9667 124.349 31.28 124.349 27.22C124.349 23.2533 125.072 19.6367 126.519 16.37C128.059 13.0567 130.275 10.2567 133.169 7.97C136.109 5.63667 139.585 3.88666 143.599 2.72C147.659 1.55333 152.092 0.969998 156.899 0.969998C161.939 0.969998 166.605 1.64666 170.899 3C175.192 4.35333 178.762 6.31333 181.609 8.88C185.809 12.66 188.095 17.5367 188.469 23.51H172.789C172.555 22.25 172.089 21.0133 171.389 19.8C170.735 18.5867 169.919 17.5367 168.939 16.65C167.539 15.39 165.812 14.4567 163.759 13.85C161.752 13.2433 159.512 12.94 157.039 12.94C153.212 12.94 149.992 13.6167 147.379 14.97C144.765 16.2767 142.875 18.2367 141.709 20.85C140.822 22.8567 140.379 25.0033 140.379 27.29C140.379 29.7633 140.775 31.91 141.569 33.73C142.782 36.3433 144.719 38.3267 147.379 39.68C150.085 40.9867 153.282 41.64 156.969 41.64C159.535 41.64 161.892 41.3133 164.039 40.66C166.185 40.0067 167.982 39.0033 169.429 37.65C170.409 36.7633 171.202 35.76 171.809 34.64C172.415 33.52 172.765 32.4 172.859 31.28H188.539C188.352 34.1733 187.675 36.8333 186.509 39.26C185.389 41.6867 183.802 43.8333 181.749 45.7C178.902 48.3133 175.309 50.2967 170.969 51.65C166.675 52.9567 161.962 53.61 156.829 53.61ZM194.82 2.58H209.66V21.55H236.96V2.58H251.73V52H236.96V33.1H209.66V52H194.82V2.58ZM287.595 53.61C278.168 53.61 271.145 51.58 266.525 47.52C261.951 43.46 259.665 37.44 259.665 29.46V2.58H274.435V28.48C274.435 33.0067 275.485 36.32 277.585 38.42C279.685 40.52 282.975 41.57 287.455 41.57C291.981 41.57 295.271 40.52 297.325 38.42C299.425 36.32 300.475 33.0067 300.475 28.48V2.58H315.245V29.46C315.245 37.4867 312.958 43.53 308.385 47.59C303.858 51.6033 296.928 53.61 287.595 53.61ZM323.13 2.58H337.97V40.03H357.22V52H323.13V2.58ZM406.628 42.48H379.188L374.848 52H358.817L382.618 2.58H403.128L426.858 52H410.968L406.628 42.48ZM401.868 31.98L392.908 12.38H392.768L383.878 31.98H401.868ZM33.44 123.61C26.02 123.61 19.6733 122.327 14.4 119.76C9.12667 117.147 5.37 113.32 3.13 108.28C1.68333 104.967 0.96 101.28 0.96 97.22C0.96 93.2533 1.68333 89.6367 3.13 86.37C4.67 83.0567 6.88667 80.2567 9.78 77.97C12.72 75.6367 16.1967 73.8867 20.21 72.72C24.27 71.5533 28.7033 70.97 33.51 70.97C38.55 70.97 43.2167 71.6467 47.51 73C51.8033 74.3533 55.3733 76.3133 58.22 78.88C62.42 82.66 64.7067 87.5367 65.08 93.51H49.4C49.1667 92.25 48.7 91.0133 48 89.8C47.3467 88.5867 46.53 87.5367 45.55 86.65C44.15 85.39 42.4233 84.4567 40.37 83.85C38.3633 83.2433 36.1233 82.94 33.65 82.94C29.8233 82.94 26.6033 83.6167 23.99 84.97C21.3767 86.2767 19.4867 88.2367 18.32 90.85C17.4333 92.8567 16.99 95.0033 16.99 97.29C16.99 99.7633 17.3867 101.91 18.18 103.73C19.3933 106.343 21.33 108.327 23.99 109.68C26.6967 110.987 29.8933 111.64 33.58 111.64C36.1467 111.64 38.5033 111.313 40.65 110.66C42.7967 110.007 44.5933 109.003 46.04 107.65C47.02 106.763 47.8133 105.76 48.42 104.64C49.0267 103.52 49.3767 102.4 49.47 101.28H65.15C64.9633 104.173 64.2867 106.833 63.12 109.26C62 111.687 60.4133 113.833 58.36 115.7C55.5133 118.313 51.92 120.297 47.58 121.65C43.2867 122.957 38.5733 123.61 33.44 123.61ZM88.7209 104.71H86.2709V122H71.4309V72.58H101.111C105.638 72.58 109.488 73.3733 112.661 74.96C115.834 76.5467 118.074 78.8333 119.381 81.82C120.314 83.78 120.781 86.09 120.781 88.75C120.781 91.5967 120.314 94.07 119.381 96.17C118.308 98.55 116.674 100.44 114.481 101.84C112.288 103.24 109.534 104.127 106.221 104.5L124.631 122H106.081L88.7209 104.71ZM86.2709 83.01V95.82H97.1209C99.3142 95.82 101.111 95.5633 102.511 95.05C103.911 94.49 104.868 93.6033 105.381 92.39C105.754 91.55 105.941 90.5467 105.941 89.38C105.941 88.4 105.778 87.5133 105.451 86.72C104.331 84.2467 101.554 83.01 97.1209 83.01H86.2709ZM129.4 72.58H173.08V83.5H144.24V92.04H172.87V102.47H144.24V111.08H173.08V122H129.4V72.58ZM269.073 72.58L249.963 122H234.913L222.243 88.96L209.503 122H194.383L175.273 72.58H191.443L202.713 103.66L214.193 72.58H230.153L241.633 103.66L252.973 72.58H269.073ZM3.55 142.58H40.51V154.06H18.39V162.11H40.37V172.89H18.39V192H3.55V142.58ZM77.0533 193.61C69.5866 193.61 63.2399 192.35 58.0133 189.83C52.7866 187.263 49.0766 183.53 46.8833 178.63C45.3433 175.27 44.5733 171.49 44.5733 167.29C44.5733 163.323 45.2966 159.683 46.7433 156.37C48.9833 151.377 52.7399 147.573 58.0133 144.96C63.2866 142.3 69.6566 140.97 77.1233 140.97C82.0233 140.97 86.48 141.553 90.4933 142.72C94.5066 143.84 97.9366 145.52 100.783 147.76C103.63 149.953 105.777 152.66 107.223 155.88C108.81 159.427 109.603 163.23 109.603 167.29C109.603 171.63 108.763 175.55 107.083 179.05C104.797 183.81 101.04 187.427 95.8133 189.9C90.6333 192.373 84.38 193.61 77.0533 193.61ZM77.1233 181.57C80.9966 181.57 84.24 180.917 86.8533 179.61C89.4666 178.257 91.3333 176.273 92.4533 173.66C93.2466 171.84 93.6433 169.717 93.6433 167.29C93.6433 164.723 93.2 162.483 92.3133 160.57C91.1466 158.05 89.2566 156.16 86.6433 154.9C84.0299 153.64 80.8333 153.01 77.0533 153.01C73.2733 153.01 70.0766 153.663 67.4633 154.97C64.8966 156.23 63.0533 158.12 61.9333 160.64C61.0933 162.46 60.6733 164.653 60.6733 167.22C60.6733 169.787 61.0933 171.98 61.9333 173.8C63.0533 176.32 64.9199 178.257 67.5333 179.61C70.1933 180.917 73.3899 181.57 77.1233 181.57ZM142.946 193.61C133.52 193.61 126.496 191.58 121.876 187.52C117.303 183.46 115.016 177.44 115.016 169.46V142.58H129.786V168.48C129.786 173.007 130.836 176.32 132.936 178.42C135.036 180.52 138.326 181.57 142.806 181.57C147.333 181.57 150.623 180.52 152.676 178.42C154.776 176.32 155.826 173.007 155.826 168.48V142.58H170.596V169.46C170.596 177.487 168.31 183.53 163.736 187.59C159.21 191.603 152.28 193.61 142.946 193.61ZM178.482 142.58H194.862L221.252 175.2V142.58H235.812V192H218.942L193.112 160.22V192H178.482V142.58ZM244.927 142.58H273.837C280.93 142.58 286.834 143.747 291.547 146.08C296.26 148.413 299.644 151.937 301.697 156.65C303.097 159.823 303.797 163.37 303.797 167.29C303.797 171.397 303.097 174.99 301.697 178.07C299.597 182.737 296.19 186.237 291.477 188.57C286.764 190.857 280.884 192 273.837 192H244.927V142.58ZM272.787 180.31C279.927 180.31 284.57 178.047 286.717 173.52C287.464 171.887 287.837 169.81 287.837 167.29C287.837 164.863 287.44 162.74 286.647 160.92C285.62 158.68 283.964 157.023 281.677 155.95C279.39 154.877 276.427 154.34 272.787 154.34H259.767V180.31H272.787ZM349.001 182.48H321.561L317.221 192H301.191L324.991 142.58H345.501L369.231 192H353.341L349.001 182.48ZM344.241 171.98L335.281 152.38H335.141L326.251 171.98H344.241ZM377.465 154.13H362.415V142.58H407.285V154.13H392.305V192H377.465V154.13ZM412.613 142.58H427.453V192H412.613V142.58ZM466.428 193.61C458.962 193.61 452.615 192.35 447.388 189.83C442.162 187.263 438.452 183.53 436.258 178.63C434.718 175.27 433.948 171.49 433.948 167.29C433.948 163.323 434.672 159.683 436.118 156.37C438.358 151.377 442.115 147.573 447.388 144.96C452.662 142.3 459.032 140.97 466.498 140.97C471.398 140.97 475.855 141.553 479.868 142.72C483.882 143.84 487.312 145.52 490.158 147.76C493.005 149.953 495.152 152.66 496.598 155.88C498.185 159.427 498.978 163.23 498.978 167.29C498.978 171.63 498.138 175.55 496.458 179.05C494.172 183.81 490.415 187.427 485.188 189.9C480.008 192.373 473.755 193.61 466.428 193.61ZM466.498 181.57C470.372 181.57 473.615 180.917 476.228 179.61C478.842 178.257 480.708 176.273 481.828 173.66C482.622 171.84 483.018 169.717 483.018 167.29C483.018 164.723 482.575 162.483 481.688 160.57C480.522 158.05 478.632 156.16 476.018 154.9C473.405 153.64 470.208 153.01 466.428 153.01C462.648 153.01 459.452 153.663 456.838 154.97C454.272 156.23 452.428 158.12 451.308 160.64C450.468 162.46 450.048 164.653 450.048 167.22C450.048 169.787 450.468 171.98 451.308 173.8C452.428 176.32 454.295 178.257 456.908 179.61C459.568 180.917 462.765 181.57 466.498 181.57ZM505.513 142.58H521.893L548.283 175.2V142.58H562.843V192H545.973L520.143 160.22V192H505.513V142.58Z" fill="#F0F4C3"/>
</svg>
