<svg width="691" height="264" viewBox="0 0 691 264" fill="none" xmlns="http://www.w3.org/2000/svg">
<path d="M3.55 2.58H19.93L46.32 35.2V2.58H60.88V52H44.01L18.18 20.22V52H3.55V2.58ZM99.8853 53.61C92.4186 53.61 86.072 52.35 80.8453 49.83C75.6186 47.2633 71.9086 43.53 69.7153 38.63C68.1753 35.27 67.4053 31.49 67.4053 27.29C67.4053 23.3233 68.1286 19.6833 69.5753 16.37C71.8153 11.3767 75.572 7.57333 80.8453 4.96C86.1186 2.3 92.4886 0.969998 99.9553 0.969998C104.855 0.969998 109.312 1.55333 113.325 2.72C117.339 3.84 120.769 5.52 123.615 7.76C126.462 9.95333 128.609 12.66 130.055 15.88C131.642 19.4267 132.435 23.23 132.435 27.29C132.435 31.63 131.595 35.55 129.915 39.05C127.629 43.81 123.872 47.4267 118.645 49.9C113.465 52.3733 107.212 53.61 99.8853 53.61ZM99.9553 41.57C103.829 41.57 107.072 40.9167 109.685 39.61C112.299 38.2567 114.165 36.2733 115.285 33.66C116.079 31.84 116.475 29.7167 116.475 27.29C116.475 24.7233 116.032 22.4833 115.145 20.57C113.979 18.05 112.089 16.16 109.475 14.9C106.862 13.64 103.665 13.01 99.8853 13.01C96.1053 13.01 92.9086 13.6633 90.2953 14.97C87.7286 16.23 85.8853 18.12 84.7653 20.64C83.9253 22.46 83.5053 24.6533 83.5053 27.22C83.5053 29.7867 83.9253 31.98 84.7653 33.8C85.8853 36.32 87.752 38.2567 90.3653 39.61C93.0253 40.9167 96.222 41.57 99.9553 41.57ZM156.26 34.71H153.81V52H138.97V2.58H168.65C173.177 2.58 177.027 3.37333 180.2 4.96C183.373 6.54666 185.613 8.83333 186.92 11.82C187.853 13.78 188.32 16.09 188.32 18.75C188.32 21.5967 187.853 24.07 186.92 26.17C185.847 28.55 184.213 30.44 182.02 31.84C179.827 33.24 177.073 34.1267 173.76 34.5L192.17 52H173.62L156.26 34.71ZM153.81 13.01V25.82H164.66C166.853 25.82 168.65 25.5633 170.05 25.05C171.45 24.49 172.407 23.6033 172.92 22.39C173.293 21.55 173.48 20.5467 173.48 19.38C173.48 18.4 173.317 17.5133 172.99 16.72C171.87 14.2467 169.093 13.01 164.66 13.01H153.81ZM206.566 14.13H191.516V2.58H236.386V14.13H221.406V52H206.566V14.13ZM241.714 2.58H256.554V21.55H283.854V2.58H298.624V52H283.854V33.1H256.554V52H241.714V2.58ZM353.772 53.61C346.352 53.61 340.005 52.3267 334.732 49.76C329.459 47.1467 325.702 43.32 323.462 38.28C322.015 34.9667 321.292 31.28 321.292 27.22C321.292 23.2533 322.015 19.6367 323.462 16.37C325.002 13.0567 327.219 10.2567 330.112 7.97C333.052 5.63667 336.529 3.88666 340.542 2.72C344.602 1.55333 349.035 0.969998 353.842 0.969998C358.882 0.969998 363.549 1.64666 367.842 3C372.135 4.35333 375.705 6.31333 378.552 8.88C382.752 12.66 385.039 17.5367 385.412 23.51H369.732C369.499 22.25 369.032 21.0133 368.332 19.8C367.679 18.5867 366.862 17.5367 365.882 16.65C364.482 15.39 362.755 14.4567 360.702 13.85C358.695 13.2433 356.455 12.94 353.982 12.94C350.155 12.94 346.935 13.6167 344.322 14.97C341.709 16.2767 339.819 18.2367 338.652 20.85C337.765 22.8567 337.322 25.0033 337.322 27.29C337.322 29.7633 337.719 31.91 338.512 33.73C339.725 36.3433 341.662 38.3267 344.322 39.68C347.029 40.9867 350.225 41.64 353.912 41.64C356.479 41.64 358.835 41.3133 360.982 40.66C363.129 40.0067 364.925 39.0033 366.372 37.65C367.352 36.7633 368.145 35.76 368.752 34.64C369.359 33.52 369.709 32.4 369.802 31.28H385.482C385.295 34.1733 384.619 36.8333 383.452 39.26C382.332 41.6867 380.745 43.8333 378.692 45.7C375.845 48.3133 372.252 50.2967 367.912 51.65C363.619 52.9567 358.905 53.61 353.772 53.61ZM421.653 53.61C414.186 53.61 407.84 52.35 402.613 49.83C397.386 47.2633 393.676 43.53 391.483 38.63C389.943 35.27 389.173 31.49 389.173 27.29C389.173 23.3233 389.896 19.6833 391.343 16.37C393.583 11.3767 397.34 7.57333 402.613 4.96C407.886 2.3 414.256 0.969998 421.723 0.969998C426.623 0.969998 431.08 1.55333 435.093 2.72C439.106 3.84 442.536 5.52 445.383 7.76C448.23 9.95333 450.376 12.66 451.823 15.88C453.41 19.4267 454.203 23.23 454.203 27.29C454.203 31.63 453.363 35.55 451.683 39.05C449.396 43.81 445.64 47.4267 440.413 49.9C435.233 52.3733 428.98 53.61 421.653 53.61ZM421.723 41.57C425.596 41.57 428.84 40.9167 431.453 39.61C434.066 38.2567 435.933 36.2733 437.053 33.66C437.846 31.84 438.243 29.7167 438.243 27.29C438.243 24.7233 437.8 22.4833 436.913 20.57C435.746 18.05 433.856 16.16 431.243 14.9C428.63 13.64 425.433 13.01 421.653 13.01C417.873 13.01 414.676 13.6633 412.063 14.97C409.496 16.23 407.653 18.12 406.533 20.64C405.693 22.46 405.273 24.6533 405.273 27.22C405.273 29.7867 405.693 31.98 406.533 33.8C407.653 36.32 409.52 38.2567 412.133 39.61C414.793 40.9167 417.99 41.57 421.723 41.57ZM487.546 53.61C478.119 53.61 471.096 51.58 466.476 47.52C461.903 43.46 459.616 37.44 459.616 29.46V2.58H474.386V28.48C474.386 33.0067 475.436 36.32 477.536 38.42C479.636 40.52 482.926 41.57 487.406 41.57C491.933 41.57 495.223 40.52 497.276 38.42C499.376 36.32 500.426 33.0067 500.426 28.48V2.58H515.196V29.46C515.196 37.4867 512.909 43.53 508.336 47.59C503.809 51.6033 496.879 53.61 487.546 53.61ZM523.081 2.58H539.461L565.851 35.2V2.58H580.411V52H563.541L537.711 20.22V52H523.081V2.58ZM600.727 14.13H585.677V2.58H630.547V14.13H615.567V52H600.727V14.13ZM653.763 30.09L631.503 2.58H648.723L661.183 18.05L673.643 2.58H690.793L668.533 30.09V52H653.763V30.09ZM3.55 72.58H18.39V110.03H37.64V122H3.55V72.58ZM104.833 94.14V95.05C104.833 97.8967 104.623 100.347 104.203 102.4C103.83 104.407 103.153 106.46 102.173 108.56C99.8862 113.553 96.1529 117.31 90.9729 119.83C85.8396 122.35 79.6329 123.61 72.3529 123.61C67.4062 123.61 62.8562 123.05 58.7029 121.93C54.5962 120.81 51.0496 119.13 48.0629 116.89C45.0762 114.65 42.8596 111.897 41.4129 108.63C39.9196 105.27 39.1729 101.49 39.1729 97.29C39.1729 93.37 39.9896 89.59 41.6229 85.95C43.9096 80.9567 47.7129 77.2233 53.0329 74.75C58.3996 72.23 64.8862 70.97 72.4929 70.97C77.6729 70.97 82.4096 71.6233 86.7029 72.93C90.9962 74.19 94.5896 76.15 97.4829 78.81C99.1629 80.2567 100.656 82.03 101.963 84.13C103.27 86.23 104.11 88.26 104.483 90.22H88.1729C87.5662 88.6333 86.6796 87.3033 85.5129 86.23C84.0662 84.97 82.2462 84.06 80.0529 83.5C77.8596 82.8933 75.4562 82.59 72.8429 82.59C68.8296 82.59 65.3996 83.2667 62.5529 84.62C59.7062 85.9733 57.6996 87.98 56.5329 90.64C56.0662 91.62 55.7396 92.6233 55.5529 93.65C55.3662 94.6767 55.2729 95.8667 55.2729 97.22C55.2729 99.7867 55.6696 102.003 56.4629 103.87C57.6762 106.53 59.6829 108.56 62.4829 109.96C65.3296 111.36 68.7129 112.06 72.6329 112.06C76.4129 112.06 79.7029 111.523 82.5029 110.45C85.3496 109.33 87.3096 107.603 88.3829 105.27L88.8729 103.87H72.0029V94.14H104.833ZM160.004 102.12C160.751 103.753 161.124 105.62 161.124 107.72C161.124 109.773 160.751 111.663 160.004 113.39C158.698 116.283 156.364 118.453 153.004 119.9C149.691 121.3 145.678 122 140.964 122H111.284V72.58H141.804C145.864 72.58 149.224 73.1633 151.884 74.33C154.591 75.4967 156.481 77.2467 157.554 79.58C158.254 81.12 158.604 82.87 158.604 84.83C158.604 86.7433 158.301 88.4 157.694 89.8C157.041 91.1533 156.108 92.2967 154.894 93.23C153.728 94.1167 152.211 94.84 150.344 95.4C155.198 96.3333 158.418 98.5733 160.004 102.12ZM126.124 92.32H135.014C137.254 92.32 139.028 92.0867 140.334 91.62C141.641 91.1533 142.528 90.3833 142.994 89.31C143.274 88.6567 143.414 87.91 143.414 87.07C143.414 86.1367 143.274 85.39 142.994 84.83C142.108 82.8233 139.448 81.82 135.014 81.82H126.124V92.32ZM144.954 109.47C145.281 108.63 145.444 107.837 145.444 107.09C145.444 106.203 145.281 105.433 144.954 104.78C144.441 103.613 143.484 102.797 142.084 102.33C140.731 101.863 138.934 101.63 136.694 101.63H126.124V112.83H136.904C139.051 112.83 140.801 112.573 142.154 112.06C143.508 111.547 144.441 110.683 144.954 109.47ZM177.65 84.13H162.6V72.58H207.47V84.13H192.49V122H177.65V84.13ZM271.696 85.88C273.283 89.4267 274.076 93.23 274.076 97.29C274.076 101.63 273.236 105.55 271.556 109.05C269.176 114.043 265.139 117.8 259.446 120.32L264.626 127.53L253.496 134.53L246.216 123.4C244.676 123.54 243.113 123.61 241.526 123.61C234.059 123.61 227.713 122.35 222.486 119.83C217.259 117.263 213.549 113.53 211.356 108.63C209.816 105.27 209.046 101.49 209.046 97.29C209.046 93.3233 209.769 89.6833 211.216 86.37C213.456 81.3767 217.213 77.5733 222.486 74.96C227.759 72.3 234.129 70.97 241.596 70.97C246.496 70.97 250.953 71.5533 254.966 72.72C258.979 73.84 262.409 75.52 265.256 77.76C268.103 79.9533 270.249 82.66 271.696 85.88ZM251.606 109.4C254.126 108.047 255.899 106.133 256.926 103.66C257.719 101.84 258.116 99.7167 258.116 97.29C258.116 94.7233 257.673 92.4833 256.786 90.57C255.619 88.05 253.729 86.16 251.116 84.9C248.503 83.64 245.306 83.01 241.526 83.01C237.746 83.01 234.549 83.6633 231.936 84.97C229.369 86.23 227.526 88.12 226.406 90.64C225.566 92.46 225.146 94.6533 225.146 97.22C225.146 99.7867 225.566 101.98 226.406 103.8C227.526 106.32 229.393 108.257 232.006 109.61C234.666 110.917 237.863 111.57 241.596 111.57H242.366L249.786 106.88L251.606 109.4ZM20.84 174.71H18.39V192H3.55V142.58H33.23C37.7567 142.58 41.6067 143.373 44.78 144.96C47.9533 146.547 50.1933 148.833 51.5 151.82C52.4333 153.78 52.9 156.09 52.9 158.75C52.9 161.597 52.4333 164.07 51.5 166.17C50.4267 168.55 48.7933 170.44 46.6 171.84C44.4067 173.24 41.6533 174.127 38.34 174.5L56.75 192H38.2L20.84 174.71ZM18.39 153.01V165.82H29.24C31.4333 165.82 33.23 165.563 34.63 165.05C36.03 164.49 36.9867 163.603 37.5 162.39C37.8733 161.55 38.06 160.547 38.06 159.38C38.06 158.4 37.8967 157.513 37.57 156.72C36.45 154.247 33.6733 153.01 29.24 153.01H18.39ZM61.5188 142.58H105.199V153.5H76.3588V162.04H104.989V172.47H76.3588V181.08H105.199V192H61.5188V142.58ZM137.352 193.61C130.865 193.61 125.452 192.723 121.112 190.95C116.772 189.177 113.785 186.447 112.152 182.76C111.358 180.987 110.915 178.863 110.822 176.39H126.222C126.268 177.323 126.478 178.187 126.852 178.98C128.158 182.013 131.705 183.53 137.492 183.53C139.965 183.53 142.065 183.25 143.792 182.69C145.518 182.083 146.638 181.243 147.152 180.17C147.385 179.563 147.502 179.027 147.502 178.56C147.502 178.093 147.385 177.58 147.152 177.02C146.732 176.133 145.892 175.387 144.632 174.78C143.372 174.173 141.925 173.683 140.292 173.31C138.658 172.937 136.465 172.493 133.712 171.98C131.332 171.56 129.698 171.257 128.812 171.07C124.378 170.137 120.902 168.97 118.382 167.57C115.862 166.123 114.042 164.187 112.922 161.76C112.222 160.22 111.872 158.447 111.872 156.44C111.872 154.573 112.222 152.87 112.922 151.33C113.948 149.09 115.605 147.2 117.892 145.66C120.178 144.12 122.955 142.953 126.222 142.16C129.488 141.367 133.058 140.97 136.932 140.97C142.905 140.97 148.038 141.903 152.332 143.77C156.625 145.59 159.565 148.273 161.152 151.82C161.992 153.5 162.412 155.413 162.412 157.56H147.012C146.918 156.487 146.732 155.623 146.452 154.97C145.845 153.57 144.702 152.52 143.022 151.82C141.388 151.073 139.312 150.7 136.792 150.7C134.692 150.7 132.825 150.957 131.192 151.47C129.605 151.937 128.555 152.707 128.042 153.78C127.855 154.247 127.762 154.667 127.762 155.04C127.762 155.367 127.855 155.763 128.042 156.23C128.415 157.07 129.138 157.77 130.212 158.33C131.332 158.89 132.615 159.357 134.062 159.73C135.555 160.103 137.608 160.547 140.222 161.06C141.668 161.293 143.115 161.573 144.562 161.9C147.595 162.507 150.232 163.207 152.472 164C154.758 164.747 156.788 165.773 158.562 167.08C160.335 168.387 161.642 169.997 162.482 171.91C163.228 173.403 163.602 175.247 163.602 177.44C163.602 179.54 163.205 181.5 162.412 183.32C160.872 186.773 157.885 189.363 153.452 191.09C149.065 192.77 143.698 193.61 137.352 193.61ZM200.442 193.61C192.975 193.61 186.629 192.35 181.402 189.83C176.175 187.263 172.465 183.53 170.272 178.63C168.732 175.27 167.962 171.49 167.962 167.29C167.962 163.323 168.685 159.683 170.132 156.37C172.372 151.377 176.129 147.573 181.402 144.96C186.675 142.3 193.045 140.97 200.512 140.97C205.412 140.97 209.869 141.553 213.882 142.72C217.895 143.84 221.325 145.52 224.172 147.76C227.019 149.953 229.165 152.66 230.612 155.88C232.199 159.427 232.992 163.23 232.992 167.29C232.992 171.63 232.152 175.55 230.472 179.05C228.185 183.81 224.429 187.427 219.202 189.9C214.022 192.373 207.769 193.61 200.442 193.61ZM200.512 181.57C204.385 181.57 207.629 180.917 210.242 179.61C212.855 178.257 214.722 176.273 215.842 173.66C216.635 171.84 217.032 169.717 217.032 167.29C217.032 164.723 216.589 162.483 215.702 160.57C214.535 158.05 212.645 156.16 210.032 154.9C207.419 153.64 204.222 153.01 200.442 153.01C196.662 153.01 193.465 153.663 190.852 154.97C188.285 156.23 186.442 158.12 185.322 160.64C184.482 162.46 184.062 164.653 184.062 167.22C184.062 169.787 184.482 171.98 185.322 173.8C186.442 176.32 188.309 178.257 190.922 179.61C193.582 180.917 196.779 181.57 200.512 181.57ZM266.335 193.61C256.908 193.61 249.885 191.58 245.265 187.52C240.692 183.46 238.405 177.44 238.405 169.46V142.58H253.175V168.48C253.175 173.007 254.225 176.32 256.325 178.42C258.425 180.52 261.715 181.57 266.195 181.57C270.722 181.57 274.012 180.52 276.065 178.42C278.165 176.32 279.215 173.007 279.215 168.48V142.58H293.985V169.46C293.985 177.487 291.698 183.53 287.125 187.59C282.598 191.603 275.668 193.61 266.335 193.61ZM319.16 174.71H316.71V192H301.87V142.58H331.55C336.077 142.58 339.927 143.373 343.1 144.96C346.274 146.547 348.514 148.833 349.82 151.82C350.754 153.78 351.22 156.09 351.22 158.75C351.22 161.597 350.754 164.07 349.82 166.17C348.747 168.55 347.114 170.44 344.92 171.84C342.727 173.24 339.974 174.127 336.66 174.5L355.07 192H336.52L319.16 174.71ZM316.71 153.01V165.82H327.56C329.754 165.82 331.55 165.563 332.95 165.05C334.35 164.49 335.307 163.603 335.82 162.39C336.194 161.55 336.38 160.547 336.38 159.38C336.38 158.4 336.217 157.513 335.89 156.72C334.77 154.247 331.994 153.01 327.56 153.01H316.71ZM388.294 193.61C380.874 193.61 374.527 192.327 369.254 189.76C363.98 187.147 360.224 183.32 357.984 178.28C356.537 174.967 355.814 171.28 355.814 167.22C355.814 163.253 356.537 159.637 357.984 156.37C359.524 153.057 361.74 150.257 364.634 147.97C367.574 145.637 371.05 143.887 375.064 142.72C379.124 141.553 383.557 140.97 388.364 140.97C393.404 140.97 398.07 141.647 402.364 143C406.657 144.353 410.227 146.313 413.074 148.88C417.274 152.66 419.56 157.537 419.934 163.51H404.254C404.02 162.25 403.554 161.013 402.854 159.8C402.2 158.587 401.384 157.537 400.404 156.65C399.004 155.39 397.277 154.457 395.224 153.85C393.217 153.243 390.977 152.94 388.504 152.94C384.677 152.94 381.457 153.617 378.844 154.97C376.23 156.277 374.34 158.237 373.174 160.85C372.287 162.857 371.844 165.003 371.844 167.29C371.844 169.763 372.24 171.91 373.034 173.73C374.247 176.343 376.184 178.327 378.844 179.68C381.55 180.987 384.747 181.64 388.434 181.64C391 181.64 393.357 181.313 395.504 180.66C397.65 180.007 399.447 179.003 400.894 177.65C401.874 176.763 402.667 175.76 403.274 174.64C403.88 173.52 404.23 172.4 404.324 171.28H420.004C419.817 174.173 419.14 176.833 417.974 179.26C416.854 181.687 415.267 183.833 413.214 185.7C410.367 188.313 406.774 190.297 402.434 191.65C398.14 192.957 393.427 193.61 388.294 193.61ZM426.284 142.58H469.964V153.5H441.124V162.04H469.754V172.47H441.124V181.08H469.964V192H426.284V142.58ZM33.44 263.61C26.02 263.61 19.6733 262.327 14.4 259.76C9.12667 257.147 5.37 253.32 3.13 248.28C1.68333 244.967 0.96 241.28 0.96 237.22C0.96 233.253 1.68333 229.637 3.13 226.37C4.67 223.057 6.88667 220.257 9.78 217.97C12.72 215.637 16.1967 213.887 20.21 212.72C24.27 211.553 28.7033 210.97 33.51 210.97C38.55 210.97 43.2167 211.647 47.51 213C51.8033 214.353 55.3733 216.313 58.22 218.88C62.42 222.66 64.7067 227.537 65.08 233.51H49.4C49.1667 232.25 48.7 231.013 48 229.8C47.3467 228.587 46.53 227.537 45.55 226.65C44.15 225.39 42.4233 224.457 40.37 223.85C38.3633 223.243 36.1233 222.94 33.65 222.94C29.8233 222.94 26.6033 223.617 23.99 224.97C21.3767 226.277 19.4867 228.237 18.32 230.85C17.4333 232.857 16.99 235.003 16.99 237.29C16.99 239.763 17.3867 241.91 18.18 243.73C19.3933 246.343 21.33 248.327 23.99 249.68C26.6967 250.987 29.8933 251.64 33.58 251.64C36.1467 251.64 38.5033 251.313 40.65 250.66C42.7967 250.007 44.5933 249.003 46.04 247.65C47.02 246.763 47.8133 245.76 48.42 244.64C49.0267 243.52 49.3767 242.4 49.47 241.28H65.15C64.9633 244.173 64.2867 246.833 63.12 249.26C62 251.687 60.4133 253.833 58.36 255.7C55.5133 258.313 51.92 260.297 47.58 261.65C43.2867 262.957 38.5733 263.61 33.44 263.61ZM71.4309 212.58H115.111V223.5H86.2709V232.04H114.901V242.47H86.2709V251.08H115.111V262H71.4309V212.58ZM122.974 212.58H139.354L165.744 245.2V212.58H180.304V262H163.434L137.604 230.22V262H122.974V212.58ZM200.619 224.13H185.569V212.58H230.439V224.13H215.459V262H200.619V224.13ZM235.767 212.58H279.447V223.5H250.607V232.04H279.237V242.47H250.607V251.08H279.447V262H235.767V212.58ZM304.6 244.71H302.15V262H287.31V212.58H316.99C321.516 212.58 325.366 213.373 328.54 214.96C331.713 216.547 333.953 218.833 335.26 221.82C336.193 223.78 336.66 226.09 336.66 228.75C336.66 231.597 336.193 234.07 335.26 236.17C334.186 238.55 332.553 240.44 330.36 241.84C328.166 243.24 325.413 244.127 322.1 244.5L340.51 262H321.96L304.6 244.71ZM302.15 223.01V235.82H313C315.193 235.82 316.99 235.563 318.39 235.05C319.79 234.49 320.746 233.603 321.26 232.39C321.633 231.55 321.82 230.547 321.82 229.38C321.82 228.4 321.656 227.513 321.33 226.72C320.21 224.247 317.433 223.01 313 223.01H302.15Z" fill="#F0F4C3"/>
</svg>
