<svg width="730" height="124" viewBox="0 0 730 124" fill="none" xmlns="http://www.w3.org/2000/svg">
<path d="M23.84 34.71H21.39V52H6.55V2.58H36.23C40.7567 2.58 44.6067 3.37333 47.78 4.96C50.9533 6.54666 53.1933 8.83333 54.5 11.82C55.4333 13.78 55.9 16.09 55.9 18.75C55.9 21.5967 55.4333 24.07 54.5 26.17C53.4267 28.55 51.7933 30.44 49.6 31.84C47.4067 33.24 44.6533 34.1267 41.34 34.5L59.75 52H41.2L23.84 34.71ZM21.39 13.01V25.82H32.24C34.4333 25.82 36.23 25.5633 37.63 25.05C39.03 24.49 39.9867 23.6033 40.5 22.39C40.8733 21.55 41.06 20.5467 41.06 19.38C41.06 18.4 40.8967 17.5133 40.57 16.72C39.45 14.2467 36.6733 13.01 32.24 13.01H21.39ZM64.5188 2.58H108.199V13.5H79.3588V22.04H107.989V32.47H79.3588V41.08H108.199V52H64.5188V2.58ZM116.062 2.58H153.022V14.06H130.902V22.11H152.882V32.89H130.902V52H116.062V2.58ZM186.483 53.61C177.057 53.61 170.033 51.58 165.413 47.52C160.84 43.46 158.553 37.44 158.553 29.46V2.58H173.323V28.48C173.323 33.0067 174.373 36.32 176.473 38.42C178.573 40.52 181.863 41.57 186.343 41.57C190.87 41.57 194.16 40.52 196.213 38.42C198.313 36.32 199.363 33.0067 199.363 28.48V2.58H214.133V29.46C214.133 37.4867 211.847 43.53 207.273 47.59C202.747 51.6033 195.817 53.61 186.483 53.61ZM285.089 24.14V25.05C285.089 27.8967 284.879 30.3467 284.459 32.4C284.085 34.4067 283.409 36.46 282.429 38.56C280.142 43.5533 276.409 47.31 271.229 49.83C266.095 52.35 259.889 53.61 252.609 53.61C247.662 53.61 243.112 53.05 238.959 51.93C234.852 50.81 231.305 49.13 228.319 46.89C225.332 44.65 223.115 41.8967 221.669 38.63C220.175 35.27 219.429 31.49 219.429 27.29C219.429 23.37 220.245 19.59 221.879 15.95C224.165 10.9567 227.969 7.22333 233.289 4.75C238.655 2.23 245.142 0.969998 252.749 0.969998C257.929 0.969998 262.665 1.62333 266.959 2.93C271.252 4.19 274.845 6.15 277.739 8.81C279.419 10.2567 280.912 12.03 282.219 14.13C283.525 16.23 284.365 18.26 284.739 20.22H268.429C267.822 18.6333 266.935 17.3033 265.769 16.23C264.322 14.97 262.502 14.06 260.309 13.5C258.115 12.8933 255.712 12.59 253.099 12.59C249.085 12.59 245.655 13.2667 242.809 14.62C239.962 15.9733 237.955 17.98 236.789 20.64C236.322 21.62 235.995 22.6233 235.809 23.65C235.622 24.6767 235.529 25.8667 235.529 27.22C235.529 29.7867 235.925 32.0033 236.719 33.87C237.932 36.53 239.939 38.56 242.739 39.96C245.585 41.36 248.969 42.06 252.889 42.06C256.669 42.06 259.959 41.5233 262.759 40.45C265.605 39.33 267.565 37.6033 268.639 35.27L269.129 33.87H252.259V24.14H285.089ZM291.54 2.58H335.22V13.5H306.38V22.04H335.01V32.47H306.38V41.08H335.22V52H291.54V2.58ZM343.083 2.58H386.763V13.5H357.923V22.04H386.553V32.47H357.923V41.08H386.763V52H343.083V2.58ZM410.759 2.58H425.599V21.55H452.899V2.58H467.669V52H452.899V33.1H425.599V52H410.759V2.58ZM476.794 2.58H520.474V13.5H491.634V22.04H520.264V32.47H491.634V41.08H520.474V52H476.794V2.58ZM570.272 42.48H542.832L538.492 52H522.462L546.262 2.58H566.772L590.502 52H574.612L570.272 42.48ZM565.512 31.98L556.552 12.38H556.412L547.522 31.98H565.512ZM594.646 2.58H609.486V40.03H628.736V52H594.646V2.58ZM637.633 14.13H622.583V2.58H667.453V14.13H652.473V52H637.633V14.13ZM672.78 2.58H687.62V21.55H714.92V2.58H729.69V52H714.92V33.1H687.62V52H672.78V2.58ZM48.69 112.48H21.25L16.91 122H0.88L24.68 72.58H45.19L68.92 122H53.03L48.69 112.48ZM43.93 101.98L34.97 82.38H34.83L25.94 101.98H43.93ZM73.0637 72.58H87.9037V110.03H107.154V122H73.0637V72.58ZM112.37 72.58H127.21V110.03H146.46V122H112.37V72.58ZM151.677 72.58H166.517V122H151.677V72.58ZM217.743 112.48H190.303L185.963 122H169.933L193.733 72.58H214.243L237.973 122H222.083L217.743 112.48ZM212.983 101.98L204.023 82.38H203.883L194.993 101.98H212.983ZM242.116 72.58H258.496L284.886 105.2V72.58H299.446V122H282.576L256.746 90.22V122H242.116V72.58ZM338.452 123.61C331.032 123.61 324.685 122.327 319.412 119.76C314.138 117.147 310.382 113.32 308.142 108.28C306.695 104.967 305.972 101.28 305.972 97.22C305.972 93.2533 306.695 89.6367 308.142 86.37C309.682 83.0567 311.898 80.2567 314.792 77.97C317.732 75.6367 321.208 73.8867 325.222 72.72C329.282 71.5533 333.715 70.97 338.522 70.97C343.562 70.97 348.228 71.6467 352.522 73C356.815 74.3533 360.385 76.3133 363.232 78.88C367.432 82.66 369.718 87.5367 370.092 93.51H354.412C354.178 92.25 353.712 91.0133 353.012 89.8C352.358 88.5867 351.542 87.5367 350.562 86.65C349.162 85.39 347.435 84.4567 345.382 83.85C343.375 83.2433 341.135 82.94 338.662 82.94C334.835 82.94 331.615 83.6167 329.002 84.97C326.388 86.2767 324.498 88.2367 323.332 90.85C322.445 92.8567 322.002 95.0033 322.002 97.29C322.002 99.7633 322.398 101.91 323.192 103.73C324.405 106.343 326.342 108.327 329.002 109.68C331.708 110.987 334.905 111.64 338.592 111.64C341.158 111.64 343.515 111.313 345.662 110.66C347.808 110.007 349.605 109.003 351.052 107.65C352.032 106.763 352.825 105.76 353.432 104.64C354.038 103.52 354.388 102.4 354.482 101.28H370.162C369.975 104.173 369.298 106.833 368.132 109.26C367.012 111.687 365.425 113.833 363.372 115.7C360.525 118.313 356.932 120.297 352.592 121.65C348.298 122.957 343.585 123.61 338.452 123.61ZM376.443 72.58H420.123V83.5H391.283V92.04H419.913V102.47H391.283V111.08H420.123V122H376.443V72.58Z" fill="#F0F4C3"/>
</svg>
