<svg width="594" height="194" viewBox="0 0 594 194" fill="none" xmlns="http://www.w3.org/2000/svg">
<path d="M15.75 14.13H0.7V2.58H45.57V14.13H30.59V52H15.75V14.13ZM68.1877 34.71H65.7377V52H50.8977V2.58H80.5777C85.1043 2.58 88.9543 3.37333 92.1277 4.96C95.301 6.54666 97.541 8.83333 98.8477 11.82C99.781 13.78 100.248 16.09 100.248 18.75C100.248 21.5967 99.781 24.07 98.8477 26.17C97.7743 28.55 96.141 30.44 93.9477 31.84C91.7543 33.24 89.001 34.1267 85.6877 34.5L104.098 52H85.5477L68.1877 34.71ZM65.7377 13.01V25.82H76.5877C78.781 25.82 80.5777 25.5633 81.9777 25.05C83.3777 24.49 84.3343 23.6033 84.8477 22.39C85.221 21.55 85.4077 20.5467 85.4077 19.38C85.4077 18.4 85.2443 17.5133 84.9177 16.72C83.7977 14.2467 81.021 13.01 76.5877 13.01H65.7377ZM152.784 42.48H125.344L121.004 52H104.974L128.774 2.58H149.284L173.014 52H157.124L152.784 42.48ZM148.024 31.98L139.064 12.38H138.924L130.034 31.98H148.024ZM177.157 2.58H193.537L219.927 35.2V2.58H234.487V52H217.617L191.787 20.22V52H177.157V2.58ZM267.893 53.61C261.406 53.61 255.993 52.7233 251.653 50.95C247.313 49.1767 244.326 46.4467 242.693 42.76C241.899 40.9867 241.456 38.8633 241.363 36.39H256.763C256.809 37.3233 257.019 38.1867 257.393 38.98C258.699 42.0133 262.246 43.53 268.033 43.53C270.506 43.53 272.606 43.25 274.333 42.69C276.059 42.0833 277.179 41.2433 277.693 40.17C277.926 39.5633 278.043 39.0267 278.043 38.56C278.043 38.0933 277.926 37.58 277.693 37.02C277.273 36.1333 276.433 35.3867 275.173 34.78C273.913 34.1733 272.466 33.6833 270.833 33.31C269.199 32.9367 267.006 32.4933 264.253 31.98C261.873 31.56 260.239 31.2567 259.353 31.07C254.919 30.1367 251.443 28.97 248.923 27.57C246.403 26.1233 244.583 24.1867 243.463 21.76C242.763 20.22 242.413 18.4467 242.413 16.44C242.413 14.5733 242.763 12.87 243.463 11.33C244.489 9.09 246.146 7.2 248.433 5.66C250.719 4.12 253.496 2.95333 256.763 2.16C260.029 1.36666 263.599 0.969998 267.473 0.969998C273.446 0.969998 278.579 1.90333 282.873 3.77C287.166 5.59 290.106 8.27333 291.693 11.82C292.533 13.5 292.953 15.4133 292.953 17.56H277.553C277.459 16.4867 277.273 15.6233 276.993 14.97C276.386 13.57 275.243 12.52 273.563 11.82C271.929 11.0733 269.853 10.7 267.333 10.7C265.233 10.7 263.366 10.9567 261.733 11.47C260.146 11.9367 259.096 12.7067 258.583 13.78C258.396 14.2467 258.303 14.6667 258.303 15.04C258.303 15.3667 258.396 15.7633 258.583 16.23C258.956 17.07 259.679 17.77 260.753 18.33C261.873 18.89 263.156 19.3567 264.603 19.73C266.096 20.1033 268.149 20.5467 270.763 21.06C272.209 21.2933 273.656 21.5733 275.103 21.9C278.136 22.5067 280.773 23.2067 283.013 24C285.299 24.7467 287.329 25.7733 289.103 27.08C290.876 28.3867 292.183 29.9967 293.023 31.91C293.769 33.4033 294.143 35.2467 294.143 37.44C294.143 39.54 293.746 41.5 292.953 43.32C291.413 46.7733 288.426 49.3633 283.993 51.09C279.606 52.77 274.239 53.61 267.893 53.61ZM301.093 2.58H338.053V14.06H315.933V22.11H337.913V32.89H315.933V52H301.093V2.58ZM381.856 42.48H354.416L350.076 52H334.046L357.846 2.58H378.356L402.086 52H386.196L381.856 42.48ZM377.096 31.98L368.136 12.38H367.996L359.106 31.98H377.096ZM406.23 2.58H423.17L441.65 33.87L460.27 2.58H477.07V52H463.21V20.92L444.94 52H438.36L420.16 20.92V52H406.23V2.58ZM486.142 2.58H500.982V52H486.142V2.58ZM510.068 2.58H524.908V40.03H544.158V52H510.068V2.58ZM556.872 30.09L534.612 2.58H551.832L564.292 18.05L576.752 2.58H593.902L571.642 30.09V52H556.872V30.09ZM28.84 123.61C22.3533 123.61 16.94 122.723 12.6 120.95C8.26 119.177 5.27333 116.447 3.64 112.76C2.84667 110.987 2.40333 108.863 2.31 106.39H17.71C17.7567 107.323 17.9667 108.187 18.34 108.98C19.6467 112.013 23.1933 113.53 28.98 113.53C31.4533 113.53 33.5533 113.25 35.28 112.69C37.0067 112.083 38.1267 111.243 38.64 110.17C38.8733 109.563 38.99 109.027 38.99 108.56C38.99 108.093 38.8733 107.58 38.64 107.02C38.22 106.133 37.38 105.387 36.12 104.78C34.86 104.173 33.4133 103.683 31.78 103.31C30.1467 102.937 27.9533 102.493 25.2 101.98C22.82 101.56 21.1867 101.257 20.3 101.07C15.8667 100.137 12.39 98.97 9.87 97.57C7.35 96.1233 5.53 94.1867 4.41 91.76C3.71 90.22 3.36 88.4467 3.36 86.44C3.36 84.5733 3.71 82.87 4.41 81.33C5.43667 79.09 7.09333 77.2 9.38 75.66C11.6667 74.12 14.4433 72.9533 17.71 72.16C20.9767 71.3667 24.5467 70.97 28.42 70.97C34.3933 70.97 39.5267 71.9033 43.82 73.77C48.1133 75.59 51.0533 78.2733 52.64 81.82C53.48 83.5 53.9 85.4133 53.9 87.56H38.5C38.4067 86.4867 38.22 85.6233 37.94 84.97C37.3333 83.57 36.19 82.52 34.51 81.82C32.8767 81.0733 30.8 80.7 28.28 80.7C26.18 80.7 24.3133 80.9567 22.68 81.47C21.0933 81.9367 20.0433 82.7067 19.53 83.78C19.3433 84.2467 19.25 84.6667 19.25 85.04C19.25 85.3667 19.3433 85.7633 19.53 86.23C19.9033 87.07 20.6267 87.77 21.7 88.33C22.82 88.89 24.1033 89.3567 25.55 89.73C27.0433 90.1033 29.0967 90.5467 31.71 91.06C33.1567 91.2933 34.6033 91.5733 36.05 91.9C39.0833 92.5067 41.72 93.2067 43.96 94C46.2467 94.7467 48.2767 95.7733 50.05 97.08C51.8233 98.3867 53.13 99.9967 53.97 101.91C54.7167 103.403 55.09 105.247 55.09 107.44C55.09 109.54 54.6933 111.5 53.9 113.32C52.36 116.773 49.3733 119.363 44.94 121.09C40.5533 122.77 35.1867 123.61 28.84 123.61ZM88.7802 123.61C79.3536 123.61 72.3302 121.58 67.7102 117.52C63.1369 113.46 60.8502 107.44 60.8502 99.46V72.58H75.6202V98.48C75.6202 103.007 76.6702 106.32 78.7702 108.42C80.8702 110.52 84.1602 111.57 88.6402 111.57C93.1669 111.57 96.4569 110.52 98.5102 108.42C100.61 106.32 101.66 103.007 101.66 98.48V72.58H116.43V99.46C116.43 107.487 114.144 113.53 109.57 117.59C105.044 121.603 98.1136 123.61 88.7802 123.61ZM124.316 72.58H152.806C157.752 72.58 161.789 73.28 164.916 74.68C168.042 76.08 170.282 78.2733 171.636 81.26C172.149 82.4267 172.522 83.64 172.756 84.9C172.989 86.16 173.106 87.56 173.106 89.1C173.106 91.8067 172.616 94.3267 171.636 96.66C168.836 102.773 162.559 105.83 152.806 105.83H139.156V122H124.316V72.58ZM149.726 95.33C151.919 95.33 153.646 95.0967 154.906 94.63C156.166 94.1633 157.076 93.37 157.636 92.25C158.056 91.41 158.266 90.3833 158.266 89.17C158.266 87.8633 158.079 86.8133 157.706 86.02C157.146 84.9467 156.212 84.2 154.906 83.78C153.646 83.36 151.826 83.15 149.446 83.15H139.156V95.33H149.726ZM178.73 72.58H207.22C212.166 72.58 216.203 73.28 219.33 74.68C222.456 76.08 224.696 78.2733 226.05 81.26C226.563 82.4267 226.936 83.64 227.17 84.9C227.403 86.16 227.52 87.56 227.52 89.1C227.52 91.8067 227.03 94.3267 226.05 96.66C223.25 102.773 216.973 105.83 207.22 105.83H193.57V122H178.73V72.58ZM204.14 95.33C206.333 95.33 208.06 95.0967 209.32 94.63C210.58 94.1633 211.49 93.37 212.05 92.25C212.47 91.41 212.68 90.3833 212.68 89.17C212.68 87.8633 212.493 86.8133 212.12 86.02C211.56 84.9467 210.626 84.2 209.32 83.78C208.06 83.36 206.24 83.15 203.86 83.15H193.57V95.33H204.14ZM262.829 123.61C255.362 123.61 249.015 122.35 243.789 119.83C238.562 117.263 234.852 113.53 232.659 108.63C231.119 105.27 230.349 101.49 230.349 97.29C230.349 93.3233 231.072 89.6833 232.519 86.37C234.759 81.3767 238.515 77.5733 243.789 74.96C249.062 72.3 255.432 70.97 262.899 70.97C267.799 70.97 272.255 71.5533 276.269 72.72C280.282 73.84 283.712 75.52 286.559 77.76C289.405 79.9533 291.552 82.66 292.999 85.88C294.585 89.4267 295.379 93.23 295.379 97.29C295.379 101.63 294.539 105.55 292.859 109.05C290.572 113.81 286.815 117.427 281.589 119.9C276.409 122.373 270.155 123.61 262.829 123.61ZM262.899 111.57C266.772 111.57 270.015 110.917 272.629 109.61C275.242 108.257 277.109 106.273 278.229 103.66C279.022 101.84 279.419 99.7167 279.419 97.29C279.419 94.7233 278.975 92.4833 278.089 90.57C276.922 88.05 275.032 86.16 272.419 84.9C269.805 83.64 266.609 83.01 262.829 83.01C259.049 83.01 255.852 83.6633 253.239 84.97C250.672 86.23 248.829 88.12 247.709 90.64C246.869 92.46 246.449 94.6533 246.449 97.22C246.449 99.7867 246.869 101.98 247.709 103.8C248.829 106.32 250.695 108.257 253.309 109.61C255.969 110.917 259.165 111.57 262.899 111.57ZM319.203 104.71H316.753V122H301.913V72.58H331.593C336.12 72.58 339.97 73.3733 343.143 74.96C346.317 76.5467 348.557 78.8333 349.863 81.82C350.797 83.78 351.263 86.09 351.263 88.75C351.263 91.5967 350.797 94.07 349.863 96.17C348.79 98.55 347.157 100.44 344.963 101.84C342.77 103.24 340.017 104.127 336.703 104.5L355.113 122H336.563L319.203 104.71ZM316.753 83.01V95.82H327.603C329.797 95.82 331.593 95.5633 332.993 95.05C334.393 94.49 335.35 93.6033 335.863 92.39C336.237 91.55 336.423 90.5467 336.423 89.38C336.423 88.4 336.26 87.5133 335.933 86.72C334.813 84.2467 332.037 83.01 327.603 83.01H316.753ZM369.51 84.13H354.46V72.58H399.33V84.13H384.35V122H369.51V84.13ZM28.84 193.61C22.3533 193.61 16.94 192.723 12.6 190.95C8.26 189.177 5.27333 186.447 3.64 182.76C2.84667 180.987 2.40333 178.863 2.31 176.39H17.71C17.7567 177.323 17.9667 178.187 18.34 178.98C19.6467 182.013 23.1933 183.53 28.98 183.53C31.4533 183.53 33.5533 183.25 35.28 182.69C37.0067 182.083 38.1267 181.243 38.64 180.17C38.8733 179.563 38.99 179.027 38.99 178.56C38.99 178.093 38.8733 177.58 38.64 177.02C38.22 176.133 37.38 175.387 36.12 174.78C34.86 174.173 33.4133 173.683 31.78 173.31C30.1467 172.937 27.9533 172.493 25.2 171.98C22.82 171.56 21.1867 171.257 20.3 171.07C15.8667 170.137 12.39 168.97 9.87 167.57C7.35 166.123 5.53 164.187 4.41 161.76C3.71 160.22 3.36 158.447 3.36 156.44C3.36 154.573 3.71 152.87 4.41 151.33C5.43667 149.09 7.09333 147.2 9.38 145.66C11.6667 144.12 14.4433 142.953 17.71 142.16C20.9767 141.367 24.5467 140.97 28.42 140.97C34.3933 140.97 39.5267 141.903 43.82 143.77C48.1133 145.59 51.0533 148.273 52.64 151.82C53.48 153.5 53.9 155.413 53.9 157.56H38.5C38.4067 156.487 38.22 155.623 37.94 154.97C37.3333 153.57 36.19 152.52 34.51 151.82C32.8767 151.073 30.8 150.7 28.28 150.7C26.18 150.7 24.3133 150.957 22.68 151.47C21.0933 151.937 20.0433 152.707 19.53 153.78C19.3433 154.247 19.25 154.667 19.25 155.04C19.25 155.367 19.3433 155.763 19.53 156.23C19.9033 157.07 20.6267 157.77 21.7 158.33C22.82 158.89 24.1033 159.357 25.55 159.73C27.0433 160.103 29.0967 160.547 31.71 161.06C33.1567 161.293 34.6033 161.573 36.05 161.9C39.0833 162.507 41.72 163.207 43.96 164C46.2467 164.747 48.2767 165.773 50.05 167.08C51.8233 168.387 53.13 169.997 53.97 171.91C54.7167 173.403 55.09 175.247 55.09 177.44C55.09 179.54 54.6933 181.5 53.9 183.32C52.36 186.773 49.3733 189.363 44.94 191.09C40.5533 192.77 35.1867 193.61 28.84 193.61ZM62.0402 142.58H105.72V153.5H76.8802V162.04H105.51V172.47H76.8802V181.08H105.72V192H62.0402V142.58ZM130.873 174.71H128.423V192H113.583V142.58H143.263C147.79 142.58 151.64 143.373 154.813 144.96C157.987 146.547 160.227 148.833 161.533 151.82C162.467 153.78 162.933 156.09 162.933 158.75C162.933 161.597 162.467 164.07 161.533 166.17C160.46 168.55 158.827 170.44 156.633 171.84C154.44 173.24 151.687 174.127 148.373 174.5L166.783 192H148.233L130.873 174.71ZM128.423 153.01V165.82H139.273C141.467 165.82 143.263 165.563 144.663 165.05C146.063 164.49 147.02 163.603 147.533 162.39C147.907 161.55 148.093 160.547 148.093 159.38C148.093 158.4 147.93 157.513 147.603 156.72C146.483 154.247 143.707 153.01 139.273 153.01H128.423ZM228.067 142.58L203.287 192H186.767L161.917 142.58H178.577L195.027 177.58L211.477 142.58H228.067ZM231.503 142.58H246.343V192H231.503V142.58ZM285.319 193.61C277.899 193.61 271.552 192.327 266.279 189.76C261.006 187.147 257.249 183.32 255.009 178.28C253.562 174.967 252.839 171.28 252.839 167.22C252.839 163.253 253.562 159.637 255.009 156.37C256.549 153.057 258.766 150.257 261.659 147.97C264.599 145.637 268.076 143.887 272.089 142.72C276.149 141.553 280.582 140.97 285.389 140.97C290.429 140.97 295.096 141.647 299.389 143C303.682 144.353 307.252 146.313 310.099 148.88C314.299 152.66 316.586 157.537 316.959 163.51H301.279C301.046 162.25 300.579 161.013 299.879 159.8C299.226 158.587 298.409 157.537 297.429 156.65C296.029 155.39 294.302 154.457 292.249 153.85C290.242 153.243 288.002 152.94 285.529 152.94C281.702 152.94 278.482 153.617 275.869 154.97C273.256 156.277 271.366 158.237 270.199 160.85C269.312 162.857 268.869 165.003 268.869 167.29C268.869 169.763 269.266 171.91 270.059 173.73C271.272 176.343 273.209 178.327 275.869 179.68C278.576 180.987 281.772 181.64 285.459 181.64C288.026 181.64 290.382 181.313 292.529 180.66C294.676 180.007 296.472 179.003 297.919 177.65C298.899 176.763 299.692 175.76 300.299 174.64C300.906 173.52 301.256 172.4 301.349 171.28H317.029C316.842 174.173 316.166 176.833 314.999 179.26C313.879 181.687 312.292 183.833 310.239 185.7C307.392 188.313 303.799 190.297 299.459 191.65C295.166 192.957 290.452 193.61 285.319 193.61ZM323.31 142.58H366.99V153.5H338.15V162.04H366.78V172.47H338.15V181.08H366.99V192H323.31V142.58ZM399.143 193.61C392.656 193.61 387.243 192.723 382.903 190.95C378.563 189.177 375.576 186.447 373.943 182.76C373.149 180.987 372.706 178.863 372.613 176.39H388.013C388.059 177.323 388.269 178.187 388.643 178.98C389.949 182.013 393.496 183.53 399.283 183.53C401.756 183.53 403.856 183.25 405.583 182.69C407.309 182.083 408.429 181.243 408.943 180.17C409.176 179.563 409.293 179.027 409.293 178.56C409.293 178.093 409.176 177.58 408.943 177.02C408.523 176.133 407.683 175.387 406.423 174.78C405.163 174.173 403.716 173.683 402.083 173.31C400.449 172.937 398.256 172.493 395.503 171.98C393.123 171.56 391.489 171.257 390.603 171.07C386.169 170.137 382.693 168.97 380.173 167.57C377.653 166.123 375.833 164.187 374.713 161.76C374.013 160.22 373.663 158.447 373.663 156.44C373.663 154.573 374.013 152.87 374.713 151.33C375.739 149.09 377.396 147.2 379.683 145.66C381.969 144.12 384.746 142.953 388.013 142.16C391.279 141.367 394.849 140.97 398.723 140.97C404.696 140.97 409.829 141.903 414.123 143.77C418.416 145.59 421.356 148.273 422.943 151.82C423.783 153.5 424.203 155.413 424.203 157.56H408.803C408.709 156.487 408.523 155.623 408.243 154.97C407.636 153.57 406.493 152.52 404.813 151.82C403.179 151.073 401.103 150.7 398.583 150.7C396.483 150.7 394.616 150.957 392.983 151.47C391.396 151.937 390.346 152.707 389.833 153.78C389.646 154.247 389.553 154.667 389.553 155.04C389.553 155.367 389.646 155.763 389.833 156.23C390.206 157.07 390.929 157.77 392.003 158.33C393.123 158.89 394.406 159.357 395.853 159.73C397.346 160.103 399.399 160.547 402.013 161.06C403.459 161.293 404.906 161.573 406.353 161.9C409.386 162.507 412.023 163.207 414.263 164C416.549 164.747 418.579 165.773 420.353 167.08C422.126 168.387 423.433 169.997 424.273 171.91C425.019 173.403 425.393 175.247 425.393 177.44C425.393 179.54 424.996 181.5 424.203 183.32C422.663 186.773 419.676 189.363 415.243 191.09C410.856 192.77 405.489 193.61 399.143 193.61Z" fill="#F0F4C3"/>
</svg>
