<svg width="271" height="26" viewBox="0 0 271 26" fill="none" xmlns="http://www.w3.org/2000/svg">
<rect x="-0.299333" y="0.299333" width="24.5453" height="24.5453" transform="matrix(1 0 0 -1 99.1816 25.1431)" stroke="#F0F4C3" stroke-width="0.598666"/>
<path d="M178.803 0.300032C175.331 0.300032 172.517 3.11437 172.517 6.58602C172.517 9.38725 174.349 11.7605 176.881 12.5727C174.349 13.3848 172.517 15.7581 172.517 18.5593C172.517 22.031 175.331 24.8453 178.803 24.8453C181.604 24.8453 183.978 23.013 184.79 20.4815C185.602 23.013 187.975 24.8453 190.776 24.8453C194.248 24.8453 197.062 22.031 197.062 18.5593C197.062 15.7581 195.23 13.3848 192.699 12.5727C195.23 11.7605 197.062 9.38725 197.062 6.58602C197.062 3.11437 194.248 0.300032 190.776 0.300032C187.975 0.300032 185.602 2.13234 184.79 4.66382C183.978 2.13234 181.604 0.300032 178.803 0.300032Z" fill="#9BB7FF" stroke="#F0F4C3" stroke-width="0.598666"/>
<path d="M6.98666 0.300032C3.515 0.300032 0.700667 3.11437 0.700667 6.58602C0.700667 9.38725 2.53298 11.7605 5.06445 12.5727C2.53298 13.3848 0.700667 15.7581 0.700667 18.5593C0.700667 22.031 3.515 24.8453 6.98666 24.8453C9.78788 24.8453 12.1612 23.013 12.9733 20.4815C13.7855 23.013 16.1587 24.8453 18.96 24.8453C22.4316 24.8453 25.246 22.031 25.246 18.5593C25.246 15.7581 23.4136 13.3848 20.8822 12.5727C23.4136 11.7605 25.246 9.38725 25.246 6.58602C25.246 3.11437 22.4316 0.300032 18.96 0.300032C16.1587 0.300032 13.7855 2.13234 12.9733 4.66382C12.1612 2.13234 9.78788 0.300032 6.98666 0.300032Z" fill="#9BB7FF" stroke="#F0F4C3" stroke-width="0.598666"/>
<rect x="-0.299333" y="0.299333" width="24.5453" height="24.5453" transform="matrix(1 0 0 -1 148.271 25.1431)" stroke="#F0F4C3" stroke-width="0.598666"/>
<rect x="-0.299333" y="0.299333" width="24.5453" height="24.5453" transform="matrix(1 0 0 -1 123.727 25.1431)" stroke="#F0F4C3" stroke-width="0.598666"/>
<rect x="-0.299333" y="0.299333" width="24.5453" height="24.5453" transform="matrix(1 0 0 -1 197.361 25.1431)" stroke="#F0F4C3" stroke-width="0.598666"/>
<rect x="-0.299333" y="0.299333" width="24.5453" height="24.5453" transform="matrix(1 0 0 -1 25.5449 25.1431)" stroke="#F0F4C3" stroke-width="0.598666"/>
<rect x="0.299333" y="-0.299333" width="48.4919" height="24.5453" rx="12.2726" transform="matrix(1 0 0 -1 50.0898 24.5454)" fill="#43A047" stroke="#F0F4C3" stroke-width="0.598666"/>
<rect x="0.299333" y="-0.299333" width="48.4919" height="24.5453" rx="12.2726" transform="matrix(1 0 0 -1 221.908 24.5454)" fill="#43A047" stroke="#F0F4C3" stroke-width="0.598666"/>
</svg>
