<svg width="68" height="273" viewBox="0 0 68 273" fill="none" xmlns="http://www.w3.org/2000/svg">
<path d="M34.1876 209.004L65.3184 240.135L34.1876 271.266L3.05679 240.135L34.1876 209.004Z" fill="#F0F4C3" stroke="#F0F4C3" stroke-width="2"/>
<mask id="path-2-inside-1_907_622" fill="white">
<path fill-rule="evenodd" clip-rule="evenodd" d="M67.0001 118.956C67.0001 122.383 64.3685 125.535 59.9589 128.031C64.3684 130.527 67 133.68 67 137.107C67 140.534 64.3684 143.686 59.9588 146.182C64.3684 148.679 67 151.831 67 155.258C67 163.355 52.3097 169.918 34.1884 169.918C16.0671 169.918 1.37681 163.355 1.37681 155.258C1.37681 151.831 4.00843 148.679 8.41799 146.182C4.00843 143.686 1.37681 140.534 1.37681 137.107C1.37681 133.68 4.00848 130.527 8.4181 128.031C4.00856 125.535 1.37695 122.382 1.37695 118.956C1.37695 110.859 16.0672 104.295 34.1885 104.295C52.3099 104.295 67.0001 110.859 67.0001 118.956Z"/>
</mask>
<path fill-rule="evenodd" clip-rule="evenodd" d="M67.0001 118.956C67.0001 122.383 64.3685 125.535 59.9589 128.031C64.3684 130.527 67 133.68 67 137.107C67 140.534 64.3684 143.686 59.9588 146.182C64.3684 148.679 67 151.831 67 155.258C67 163.355 52.3097 169.918 34.1884 169.918C16.0671 169.918 1.37681 163.355 1.37681 155.258C1.37681 151.831 4.00843 148.679 8.41799 146.182C4.00843 143.686 1.37681 140.534 1.37681 137.107C1.37681 133.68 4.00848 130.527 8.4181 128.031C4.00856 125.535 1.37695 122.382 1.37695 118.956C1.37695 110.859 16.0672 104.295 34.1885 104.295C52.3099 104.295 67.0001 110.859 67.0001 118.956Z" fill="#43A047"/>
<path d="M59.9589 128.031L58.9736 126.291L55.8991 128.031L58.9736 129.772L59.9589 128.031ZM59.9588 146.182L58.9735 144.442L55.8991 146.182L58.9735 147.923L59.9588 146.182ZM8.41799 146.182L9.40327 147.923L12.4777 146.182L9.40327 144.442L8.41799 146.182ZM8.4181 128.031L9.40337 129.772L12.4779 128.031L9.40339 126.291L8.4181 128.031ZM60.9441 129.772C65.5562 127.161 69.0001 123.485 69.0001 118.956H65.0001C65.0001 121.28 63.1807 123.909 58.9736 126.291L60.9441 129.772ZM69 137.107C69 132.577 65.5561 128.902 60.9441 126.291L58.9736 129.772C63.1806 132.153 65 134.783 65 137.107H69ZM60.9441 147.923C65.5561 145.312 69 141.636 69 137.107H65C65 139.431 63.1806 142.06 58.9735 144.442L60.9441 147.923ZM58.9735 147.923C63.1806 150.304 65 152.934 65 155.258H69C69 150.728 65.5561 147.053 60.9441 144.442L58.9735 147.923ZM65 155.258C65 156.635 64.3837 158.095 62.9691 159.589C61.5445 161.094 59.3893 162.54 56.5738 163.798C50.9477 166.312 43.035 167.918 34.1884 167.918V171.918C43.4632 171.918 51.9563 170.243 58.2056 167.45C61.3279 166.055 63.9778 164.342 65.8739 162.339C67.78 160.326 69 157.929 69 155.258H65ZM34.1884 167.918C25.3419 167.918 17.4291 166.312 11.803 163.798C8.98753 162.54 6.83232 161.094 5.40775 159.589C3.99313 158.095 3.37681 156.635 3.37681 155.258H-0.623188C-0.623188 157.929 0.596772 160.326 2.50287 162.339C4.39902 164.342 7.04895 166.055 10.1712 167.45C16.4205 170.243 24.9136 171.918 34.1884 171.918V167.918ZM3.37681 155.258C3.37681 152.934 5.19618 150.304 9.40327 147.923L7.43271 144.442C2.82068 147.053 -0.623188 150.728 -0.623188 155.258H3.37681ZM-0.623188 137.107C-0.623188 141.636 2.82068 145.312 7.43271 147.923L9.40327 144.442C5.19618 142.06 3.37681 139.431 3.37681 137.107H-0.623188ZM7.43282 126.291C2.82074 128.901 -0.623188 132.577 -0.623188 137.107H3.37681C3.37681 134.783 5.19621 132.153 9.40337 129.772L7.43282 126.291ZM-0.623047 118.956C-0.623047 123.485 2.82081 127.161 7.43281 129.772L9.40339 126.291C5.19631 123.909 3.37695 121.28 3.37695 118.956H-0.623047ZM34.1885 102.295C24.9138 102.295 16.4207 103.971 10.1714 106.763C7.04909 108.158 4.39916 109.871 2.50301 111.874C0.596913 113.888 -0.623047 116.284 -0.623047 118.956H3.37695C3.37695 117.578 3.99327 116.118 5.40789 114.624C6.83246 113.119 8.98767 111.673 11.8031 110.415C17.4293 107.901 25.342 106.295 34.1885 106.295V102.295ZM69.0001 118.956C69.0001 116.284 67.7802 113.888 65.8741 111.874C63.9779 109.871 61.328 108.158 58.2057 106.763C51.9564 103.971 43.4633 102.295 34.1885 102.295V106.295C43.0351 106.295 50.9478 107.901 56.574 110.415C59.3894 111.673 61.5446 113.119 62.9692 114.624C64.3838 116.118 65.0001 117.578 65.0001 118.956H69.0001Z" fill="#F0F4C3" mask="url(#path-2-inside-1_907_622)"/>
<path d="M17.9151 1C8.92803 1 1.64258 8.28545 1.64258 17.2725C1.64258 26.2596 8.92803 33.545 17.9151 33.545C8.92803 33.545 1.64258 40.8304 1.64258 49.8175C1.64258 58.8046 8.92803 66.09 17.9151 66.09C26.9021 66.09 34.1876 58.8046 34.1876 49.8175C34.1876 58.8046 41.473 66.09 50.4601 66.09C59.4471 66.09 66.7326 58.8046 66.7326 49.8175C66.7326 40.8304 59.4471 33.545 50.4601 33.545C59.4471 33.545 66.7326 26.2596 66.7326 17.2725C66.7326 8.28545 59.4471 1 50.4601 1C41.473 1 34.1876 8.28545 34.1876 17.2725C34.1876 8.28545 26.9021 1 17.9151 1Z" fill="#9BB7FF" stroke="#F0F4C3" stroke-width="2"/>
</svg>
