<svg width="272" height="27" viewBox="0 0 272 27" fill="none" xmlns="http://www.w3.org/2000/svg">
<rect x="-0.30011" y="0.30011" width="24.6091" height="24.6091" transform="matrix(1 0 0 -1 98.4375 26.2057)" stroke="#F0F4C3" stroke-width="0.600221"/>
<mask id="path-2-inside-1_904_4504" fill="white">
<path fill-rule="evenodd" clip-rule="evenodd" d="M196.273 6.95962C196.273 8.21318 195.31 9.36629 193.697 10.2795C195.31 11.1927 196.273 12.3458 196.273 13.5994C196.273 14.8534 195.309 16.0069 193.696 16.9202C195.309 17.8336 196.273 18.9871 196.273 20.2411C196.273 23.2033 190.898 25.6047 184.268 25.6047C177.638 25.6047 172.264 23.2033 172.264 20.2411C172.264 18.9871 173.227 17.8336 174.841 16.9202C173.227 16.0069 172.264 14.8534 172.264 13.5994C172.264 12.3458 173.226 11.1927 174.839 10.2795C173.226 9.36629 172.264 8.21318 172.264 6.95962C172.264 3.99735 177.638 1.59595 184.268 1.59595C190.898 1.59595 196.273 3.99735 196.273 6.95962Z"/>
</mask>
<path fill-rule="evenodd" clip-rule="evenodd" d="M196.273 6.95962C196.273 8.21318 195.31 9.36629 193.697 10.2795C195.31 11.1927 196.273 12.3458 196.273 13.5994C196.273 14.8534 195.309 16.0069 193.696 16.9202C195.309 17.8336 196.273 18.9871 196.273 20.2411C196.273 23.2033 190.898 25.6047 184.268 25.6047C177.638 25.6047 172.264 23.2033 172.264 20.2411C172.264 18.9871 173.227 17.8336 174.841 16.9202C173.227 16.0069 172.264 14.8534 172.264 13.5994C172.264 12.3458 173.226 11.1927 174.839 10.2795C173.226 9.36629 172.264 8.21318 172.264 6.95962C172.264 3.99735 177.638 1.59595 184.268 1.59595C190.898 1.59595 196.273 3.99735 196.273 6.95962Z" fill="#43A047"/>
<path d="M193.697 10.2795L193.402 9.75719L192.479 10.2795L193.402 10.8018L193.697 10.2795ZM193.696 16.9202L193.4 16.3978L192.477 16.9202L193.4 17.4426L193.696 16.9202ZM174.841 16.9202L175.136 17.4426L176.059 16.9202L175.136 16.3978L174.841 16.9202ZM174.839 10.2795L175.135 10.8018L176.057 10.2795L175.135 9.75719L174.839 10.2795ZM193.993 10.8018C195.667 9.85417 196.873 8.54409 196.873 6.95962H195.672C195.672 7.88227 194.954 8.87841 193.402 9.75719L193.993 10.8018ZM196.873 13.5994C196.873 12.0149 195.667 10.7048 193.993 9.75719L193.402 10.8018C194.954 11.6806 195.672 12.6767 195.672 13.5994H196.873ZM193.991 17.4426C195.666 16.4948 196.873 15.1844 196.873 13.5994H195.672C195.672 14.5223 194.953 15.5189 193.4 16.3978L193.991 17.4426ZM193.4 17.4426C194.953 18.3215 195.672 19.3181 195.672 20.2411H196.873C196.873 18.656 195.666 17.3456 193.991 16.3978L193.4 17.4426ZM195.672 20.2411C195.672 20.7874 195.427 21.3524 194.893 21.9162C194.357 22.4832 193.552 23.021 192.512 23.4857C190.433 24.4146 187.519 25.0045 184.268 25.0045V26.205C187.647 26.205 190.735 25.5942 193.001 24.5818C194.134 24.0759 195.087 23.4579 195.765 22.7415C196.446 22.0219 196.873 21.1758 196.873 20.2411H195.672ZM184.268 25.0045C181.017 25.0045 178.103 24.4146 176.025 23.4857C174.984 23.021 174.18 22.4832 173.643 21.9162C173.109 21.3524 172.864 20.7874 172.864 20.2411H171.663C171.663 21.1758 172.09 22.0219 172.771 22.7415C173.449 23.4579 174.403 24.0759 175.535 24.5818C177.801 25.5942 180.889 26.205 184.268 26.205V25.0045ZM172.864 20.2411C172.864 19.3181 173.583 18.3215 175.136 17.4426L174.545 16.3978C172.87 17.3456 171.663 18.656 171.663 20.2411H172.864ZM171.663 13.5994C171.663 15.1844 172.87 16.4948 174.545 17.4426L175.136 16.3978C173.583 15.5189 172.864 14.5223 172.864 13.5994H171.663ZM174.543 9.75719C172.87 10.7048 171.663 12.0149 171.663 13.5994H172.864C172.864 12.6767 173.583 11.6806 175.135 10.8018L174.543 9.75719ZM171.663 6.95962C171.663 8.54409 172.87 9.85417 174.543 10.8018L175.135 9.75719C173.583 8.87841 172.864 7.88227 172.864 6.95962H171.663ZM184.268 0.995726C180.889 0.995726 177.801 1.60651 175.535 2.61892C174.403 3.12481 173.449 3.74276 172.771 4.45921C172.09 5.17882 171.663 6.02485 171.663 6.95962H172.864C172.864 6.41326 173.109 5.84826 173.643 5.28447C174.18 4.71752 174.984 4.17968 176.025 3.71494C178.103 2.78608 181.017 2.19617 184.268 2.19617V0.995726ZM196.873 6.95962C196.873 6.02485 196.446 5.17882 195.765 4.45921C195.087 3.74276 194.134 3.12481 193.001 2.61892C190.735 1.60651 187.647 0.995726 184.268 0.995726V2.19617C187.519 2.19617 190.433 2.78608 192.512 3.71494C193.552 4.17968 194.357 4.71752 194.893 5.28447C195.427 5.84826 195.672 6.41326 195.672 6.95962H196.873Z" fill="#F0F4C3" mask="url(#path-2-inside-1_904_4504)"/>
<mask id="path-4-inside-2_904_4504" fill="white">
<path fill-rule="evenodd" clip-rule="evenodd" d="M24.0088 6.95962C24.0088 8.21318 23.0464 9.36629 21.4336 10.2795C23.0464 11.1927 24.0088 12.3458 24.0088 13.5994C24.0088 14.8534 23.0457 16.0069 21.4319 16.9202C23.0457 17.8336 24.0088 18.9871 24.0088 20.2411C24.0088 23.2033 18.6343 25.6047 12.0044 25.6047C5.37456 25.6047 0 23.2033 0 20.2411C0 18.9871 0.963137 17.8336 2.57692 16.9202C0.963137 16.0069 0 14.8534 0 13.5994C0 12.3458 0.962448 11.1927 2.57519 10.2795C0.962448 9.36629 0 8.21318 0 6.95962C0 3.99735 5.37456 1.59595 12.0044 1.59595C18.6343 1.59595 24.0088 3.99735 24.0088 6.95962Z"/>
</mask>
<path fill-rule="evenodd" clip-rule="evenodd" d="M24.0088 6.95962C24.0088 8.21318 23.0464 9.36629 21.4336 10.2795C23.0464 11.1927 24.0088 12.3458 24.0088 13.5994C24.0088 14.8534 23.0457 16.0069 21.4319 16.9202C23.0457 17.8336 24.0088 18.9871 24.0088 20.2411C24.0088 23.2033 18.6343 25.6047 12.0044 25.6047C5.37456 25.6047 0 23.2033 0 20.2411C0 18.9871 0.963137 17.8336 2.57692 16.9202C0.963137 16.0069 0 14.8534 0 13.5994C0 12.3458 0.962448 11.1927 2.57519 10.2795C0.962448 9.36629 0 8.21318 0 6.95962C0 3.99735 5.37456 1.59595 12.0044 1.59595C18.6343 1.59595 24.0088 3.99735 24.0088 6.95962Z" fill="#43A047"/>
<path d="M21.4336 10.2795L21.1379 9.75719L20.2155 10.2795L21.1379 10.8018L21.4336 10.2795ZM21.4319 16.9202L21.1363 16.3978L20.2133 16.9202L21.1363 17.4426L21.4319 16.9202ZM2.57692 16.9202L2.87256 17.4426L3.7955 16.9202L2.87256 16.3978L2.57692 16.9202ZM2.57519 10.2795L2.87094 10.8018L3.79333 10.2795L2.87094 9.75719L2.57519 10.2795ZM21.7294 10.8018C23.4029 9.85417 24.6091 8.54409 24.6091 6.95962H23.4086C23.4086 7.88227 22.6899 8.87841 21.1379 9.75719L21.7294 10.8018ZM24.6091 13.5994C24.6091 12.0149 23.4029 10.7048 21.7294 9.75719L21.1379 10.8018C22.6899 11.6806 23.4086 12.6767 23.4086 13.5994H24.6091ZM21.7276 17.4426C23.4021 16.4948 24.6091 15.1844 24.6091 13.5994H23.4086C23.4086 14.5223 22.6893 15.5189 21.1363 16.3978L21.7276 17.4426ZM21.1363 17.4426C22.6893 18.3215 23.4086 19.3181 23.4086 20.2411H24.6091C24.6091 18.656 23.4021 17.3456 21.7276 16.3978L21.1363 17.4426ZM23.4086 20.2411C23.4086 20.7874 23.1633 21.3524 22.6296 21.9162C22.0929 22.4832 21.2881 23.021 20.248 23.4857C18.1691 24.4146 15.2551 25.0045 12.0044 25.0045V26.205C15.3836 26.205 18.4718 25.5942 20.7377 24.5818C21.8699 24.0759 22.8231 23.4579 23.5014 22.7415C24.1826 22.0219 24.6091 21.1758 24.6091 20.2411H23.4086ZM12.0044 25.0045C8.75375 25.0045 5.83973 24.4146 3.76087 23.4857C2.72072 23.021 1.91595 22.4832 1.37926 21.9162C0.845552 21.3524 0.600221 20.7874 0.600221 20.2411H-0.600221C-0.600221 21.1758 -0.173732 22.0219 0.507475 22.7415C1.18569 23.4579 2.13893 24.0759 3.27116 24.5818C5.53704 25.5942 8.62523 26.205 12.0044 26.205V25.0045ZM0.600221 20.2411C0.600221 19.3181 1.31952 18.3215 2.87256 17.4426L2.28128 16.3978C0.606753 17.3456 -0.600221 18.656 -0.600221 20.2411H0.600221ZM-0.600221 13.5994C-0.600221 15.1844 0.606753 16.4948 2.28128 17.4426L2.87256 16.3978C1.31952 15.5189 0.600221 14.5223 0.600221 13.5994H-0.600221ZM2.27944 9.75719C0.605916 10.7048 -0.600221 12.0149 -0.600221 13.5994H0.600221C0.600221 12.6767 1.31898 11.6806 2.87094 10.8018L2.27944 9.75719ZM-0.600221 6.95962C-0.600221 8.54409 0.605915 9.85417 2.27944 10.8018L2.87094 9.75719C1.31898 8.87841 0.600221 7.88227 0.600221 6.95962H-0.600221ZM12.0044 0.995726C8.62523 0.995726 5.53704 1.60651 3.27116 2.61892C2.13893 3.12481 1.18569 3.74276 0.507475 4.45921C-0.173732 5.17882 -0.600221 6.02485 -0.600221 6.95962H0.600221C0.600221 6.41326 0.845552 5.84826 1.37926 5.28447C1.91595 4.71752 2.72072 4.17968 3.76087 3.71494C5.83973 2.78608 8.75375 2.19617 12.0044 2.19617V0.995726ZM24.6091 6.95962C24.6091 6.02485 24.1826 5.17882 23.5014 4.45921C22.8231 3.74276 21.8699 3.12481 20.7377 2.61892C18.4718 1.60651 15.3836 0.995726 12.0044 0.995726V2.19617C15.2551 2.19617 18.1691 2.78608 20.248 3.71494C21.2881 4.17968 22.0929 4.71752 22.6296 5.28447C23.1633 5.84826 23.4086 6.41326 23.4086 6.95962H24.6091Z" fill="#F0F4C3" mask="url(#path-4-inside-2_904_4504)"/>
<rect x="-0.30011" y="0.30011" width="24.6091" height="24.6091" transform="matrix(1 0 0 -1 147.654 26.2057)" stroke="#F0F4C3" stroke-width="0.600221"/>
<rect x="-0.30011" y="0.30011" width="24.6091" height="24.6091" transform="matrix(1 0 0 -1 123.045 26.2057)" stroke="#F0F4C3" stroke-width="0.600221"/>
<rect x="-0.30011" y="0.30011" width="24.6091" height="24.6091" transform="matrix(1 0 0 -1 196.871 26.2057)" stroke="#F0F4C3" stroke-width="0.600221"/>
<rect x="-0.30011" y="0.30011" width="24.6091" height="24.6091" transform="matrix(1 0 0 -1 246.992 26.2057)" stroke="#F0F4C3" stroke-width="0.600221"/>
<rect x="-0.30011" y="0.30011" width="24.6091" height="24.6091" transform="matrix(1 0 0 -1 24.6094 26.2057)" stroke="#F0F4C3" stroke-width="0.600221"/>
<rect x="0.30011" y="-0.30011" width="24.6091" height="24.6091" transform="matrix(1 0 0 -1 48.6172 25.609)" stroke="#F0F4C3" stroke-width="0.600221"/>
<rect x="0.30011" y="-0.30011" width="24.6091" height="24.6091" rx="12.3045" transform="matrix(1 0 0 -1 73.2266 25.609)" fill="#9BB7FF" stroke="#F0F4C3" stroke-width="0.600221"/>
<rect x="0.30011" y="-0.30011" width="24.6091" height="24.6091" rx="12.3045" transform="matrix(1 0 0 -1 221.48 25.609)" fill="#9BB7FF" stroke="#F0F4C3" stroke-width="0.600221"/>
</svg>
