<svg width="1440" height="100" viewBox="0 0 1440 100" fill="none" xmlns="http://www.w3.org/2000/svg">
<line y1="49" x2="1440" y2="49" stroke="#F0F4C3" stroke-width="2"/>
<mask id="path-2-inside-1_29_41" fill="white">
<path fill-rule="evenodd" clip-rule="evenodd" d="M770 22.3404C770 27.5626 765.99 32.3663 759.27 36.1702C765.99 39.9741 770 44.7778 770 50C770 55.2221 765.99 60.0258 759.27 63.8297C765.99 67.6337 770 72.4373 770 77.6595C770 89.9978 747.614 99.9999 720 99.9999C692.386 99.9999 670 89.9978 670 77.6595C670 72.4373 674.01 67.6337 680.73 63.8297C674.01 60.0258 670 55.2221 670 50C670 44.7778 674.01 39.9741 680.73 36.1702C674.01 32.3663 670 27.5626 670 22.3404C670 10.0021 692.386 0 720 0C747.614 0 770 10.0021 770 22.3404Z"/>
</mask>
<path fill-rule="evenodd" clip-rule="evenodd" d="M770 22.3404C770 27.5626 765.99 32.3663 759.27 36.1702C765.99 39.9741 770 44.7778 770 50C770 55.2221 765.99 60.0258 759.27 63.8297C765.99 67.6337 770 72.4373 770 77.6595C770 89.9978 747.614 99.9999 720 99.9999C692.386 99.9999 670 89.9978 670 77.6595C670 72.4373 674.01 67.6337 680.73 63.8297C674.01 60.0258 670 55.2221 670 50C670 44.7778 674.01 39.9741 680.73 36.1702C674.01 32.3663 670 27.5626 670 22.3404C670 10.0021 692.386 0 720 0C747.614 0 770 10.0021 770 22.3404Z" fill="#43A047"/>
<path d="M759.27 36.1702L758.285 34.4297L755.211 36.1702L758.285 37.9107L759.27 36.1702ZM759.27 63.8297L758.285 62.0893L755.211 63.8297L758.285 65.5702L759.27 63.8297ZM680.73 63.8297L681.715 65.5702L684.789 63.8297L681.715 62.0893L680.73 63.8297ZM680.73 36.1702L681.715 37.9107L684.789 36.1702L681.715 34.4297L680.73 36.1702ZM760.256 37.9107C767.178 33.9921 772 28.6654 772 22.3404H768C768 26.4598 764.802 30.7404 758.285 34.4297L760.256 37.9107ZM772 50C772 43.675 767.178 38.3483 760.256 34.4297L758.285 37.9107C764.802 41.6 768 45.8806 768 50H772ZM760.256 65.5702C767.178 61.6516 772 56.3249 772 50H768C768 54.1193 764.802 58.3999 758.285 62.0893L760.256 65.5702ZM758.285 65.5702C764.802 69.2595 768 73.5401 768 77.6595H772C772 71.3345 767.178 66.0078 760.256 62.0893L758.285 65.5702ZM768 77.6595C768 80.0969 766.903 82.5673 764.618 84.9805C762.324 87.4042 758.91 89.6777 754.539 91.6305C745.803 95.5341 733.593 97.9999 720 97.9999V102C734.021 102 746.811 99.4646 756.171 95.2826C760.849 93.1926 764.757 90.6522 767.523 87.7303C770.299 84.7979 772 81.3912 772 77.6595H768ZM720 97.9999C706.407 97.9999 694.197 95.5341 685.461 91.6305C681.09 89.6777 677.676 87.4042 675.382 84.9805C673.097 82.5673 672 80.0969 672 77.6595H668C668 81.3912 669.701 84.7979 672.477 87.7303C675.243 90.6522 679.151 93.1926 683.829 95.2826C693.189 99.4646 705.979 102 720 102V97.9999ZM672 77.6595C672 73.5401 675.198 69.2595 681.715 65.5702L679.744 62.0893C672.822 66.0078 668 71.3345 668 77.6595H672ZM668 50C668 56.3249 672.822 61.6516 679.744 65.5702L681.715 62.0893C675.198 58.3999 672 54.1193 672 50H668ZM679.744 34.4297C672.822 38.3483 668 43.675 668 50H672C672 45.8806 675.198 41.6 681.715 37.9107L679.744 34.4297ZM668 22.3404C668 28.6654 672.822 33.9921 679.744 37.9107L681.715 34.4297C675.198 30.7404 672 26.4598 672 22.3404H668ZM720 -2C705.979 -2 693.189 0.535306 683.829 4.71734C679.151 6.8073 675.243 9.34775 672.477 12.2696C669.701 15.202 668 18.6088 668 22.3404H672C672 19.903 673.097 17.4326 675.382 15.0195C677.676 12.5958 681.09 10.3222 685.461 8.36938C694.197 4.46577 706.407 2 720 2V-2ZM772 22.3404C772 18.6088 770.299 15.202 767.523 12.2696C764.757 9.34775 760.849 6.8073 756.171 4.71734C746.811 0.535306 734.021 -2 720 -2V2C733.593 2 745.803 4.46577 754.539 8.36938C758.91 10.3222 762.324 12.5958 764.618 15.0195C766.903 17.4326 768 19.903 768 22.3404H772Z" fill="#F0F4C3" mask="url(#path-2-inside-1_29_41)"/>
</svg>
