<svg width="179" height="49" viewBox="0 0 179 49" fill="none" xmlns="http://www.w3.org/2000/svg">
<mask id="path-1-inside-1_907_1176" fill="white">
<path fill-rule="evenodd" clip-rule="evenodd" d="M113.183 11.8914C113.183 14.3307 111.31 16.5745 108.171 18.3514C111.31 20.1282 113.183 22.3721 113.183 24.8114C113.183 27.2507 111.31 29.4945 108.171 31.2713C111.31 33.0481 113.183 35.2919 113.183 37.7312C113.183 43.4944 102.727 48.1665 89.8278 48.1665C76.9291 48.1665 66.4727 43.4944 66.4727 37.7312C66.4727 35.2919 68.3458 33.0481 71.4844 31.2713C68.3458 29.4945 66.4727 27.2507 66.4727 24.8114C66.4727 22.3721 68.3459 20.1282 71.4847 18.3514C68.3459 16.5745 66.4727 14.3307 66.4727 11.8914C66.4727 6.1281 76.9291 1.45605 89.8278 1.45605C102.727 1.45605 113.183 6.1281 113.183 11.8914Z"/>
</mask>
<path fill-rule="evenodd" clip-rule="evenodd" d="M113.183 11.8914C113.183 14.3307 111.31 16.5745 108.171 18.3514C111.31 20.1282 113.183 22.3721 113.183 24.8114C113.183 27.2507 111.31 29.4945 108.171 31.2713C111.31 33.0481 113.183 35.2919 113.183 37.7312C113.183 43.4944 102.727 48.1665 89.8278 48.1665C76.9291 48.1665 66.4727 43.4944 66.4727 37.7312C66.4727 35.2919 68.3458 33.0481 71.4844 31.2713C68.3458 29.4945 66.4727 27.2507 66.4727 24.8114C66.4727 22.3721 68.3459 20.1282 71.4847 18.3514C68.3459 16.5745 66.4727 14.3307 66.4727 11.8914C66.4727 6.1281 76.9291 1.45605 89.8278 1.45605C102.727 1.45605 113.183 6.1281 113.183 11.8914Z" fill="#43A047"/>
<path d="M108.171 18.3514L107.678 17.4812L106.141 18.3514L107.678 19.2216L108.171 18.3514ZM108.171 31.2713L107.679 30.4011L106.141 31.2713L107.679 32.1415L108.171 31.2713ZM71.4844 31.2713L71.9771 32.1415L73.5142 31.2713L71.9771 30.4011L71.4844 31.2713ZM71.4847 18.3514L71.9773 19.2216L73.5146 18.3514L71.9773 17.4812L71.4847 18.3514ZM108.664 19.2216C111.904 17.3875 114.183 14.8821 114.183 11.8914H112.183C112.183 13.7793 110.716 15.7616 107.678 17.4812L108.664 19.2216ZM114.183 24.8114C114.183 21.8207 111.904 19.3153 108.664 17.4812L107.678 19.2216C110.716 20.9412 112.183 22.9235 112.183 24.8114H114.183ZM108.664 32.1415C111.904 30.3074 114.183 27.8021 114.183 24.8114H112.183C112.183 26.6993 110.716 28.6816 107.679 30.4011L108.664 32.1415ZM107.679 32.1415C110.716 33.861 112.183 35.8433 112.183 37.7312H114.183C114.183 34.7405 111.904 32.2352 108.664 30.4011L107.679 32.1415ZM112.183 37.7312C112.183 38.8484 111.68 39.9869 110.621 41.1056C109.558 42.2295 107.971 43.2871 105.935 44.197C101.864 46.0158 96.1701 47.1665 89.8278 47.1665V49.1665C96.3843 49.1665 102.368 47.9811 106.75 46.0231C108.94 45.0446 110.774 43.8535 112.074 42.4805C113.379 41.1023 114.183 39.4955 114.183 37.7312H112.183ZM89.8278 47.1665C83.4855 47.1665 77.7918 46.0158 73.7212 44.197C71.6846 43.2871 70.0982 42.2295 69.0342 41.1056C67.9753 39.9869 67.4727 38.8484 67.4727 37.7312H65.4727C65.4727 39.4955 66.2771 41.1023 67.5818 42.4805C68.8815 43.8535 70.7154 45.0446 72.9053 46.0231C77.2875 47.9811 83.2714 49.1665 89.8278 49.1665V47.1665ZM67.4727 37.7312C67.4727 35.8433 68.9397 33.861 71.9771 32.1415L70.9918 30.4011C67.7519 32.2352 65.4727 34.7405 65.4727 37.7312H67.4727ZM65.4727 24.8114C65.4727 27.8021 67.7519 30.3074 70.9918 32.1415L71.9771 30.4011C68.9397 28.6816 67.4727 26.6993 67.4727 24.8114H65.4727ZM70.9921 17.4812C67.752 19.3153 65.4727 21.8207 65.4727 24.8114H67.4727C67.4727 22.9235 68.9398 20.9412 71.9773 19.2216L70.9921 17.4812ZM65.4727 11.8914C65.4727 14.8821 67.752 17.3875 70.9921 19.2216L71.9773 17.4812C68.9398 15.7616 67.4727 13.7793 67.4727 11.8914H65.4727ZM89.8278 0.456055C83.2714 0.456055 77.2875 1.64145 72.9053 3.59947C70.7154 4.57796 68.8815 5.769 67.5818 7.142C66.2771 8.52026 65.4727 10.127 65.4727 11.8914H67.4727C67.4727 10.7741 67.9753 9.63559 69.0342 8.51693C70.0982 7.393 71.6846 6.33543 73.7212 5.42549C77.7918 3.60668 83.4855 2.45605 89.8278 2.45605V0.456055ZM114.183 11.8914C114.183 10.127 113.379 8.52026 112.074 7.142C110.774 5.769 108.94 4.57796 106.75 3.59947C102.368 1.64145 96.3843 0.456055 89.8278 0.456055V2.45605C96.1701 2.45605 101.864 3.60668 105.935 5.42549C107.971 6.33543 109.558 7.393 110.621 8.51693C111.68 9.63559 112.183 10.7741 112.183 11.8914H114.183Z" fill="#F0F4C3" mask="url(#path-1-inside-1_907_1176)"/>
<path d="M12.5 1C6.14873 1 1 6.26065 1 12.75C1 19.2393 6.14873 24.5 12.5 24.5C6.14873 24.5 1 29.7607 1 36.25C1 42.7393 6.14873 48 12.5 48C18.8513 48 24 42.7393 24 36.25C24 42.7393 29.1487 48 35.5 48C41.8513 48 47 42.7393 47 36.25C47 29.7607 41.8513 24.5 35.5 24.5C41.8513 24.5 47 19.2393 47 12.75C47 6.26065 41.8513 1 35.5 1C29.1487 1 24 6.26065 24 12.75C24 6.26065 18.8513 1 12.5 1Z" fill="#9BB7FF" stroke="#F0F4C3"/>
<path d="M156 47.2852L133.7 24.5L156 1.71483L178.3 24.5L156 47.2852Z" fill="#F0F4C3" stroke="#F0F4C3"/>
</svg>
