<svg width="271" height="26" viewBox="0 0 271 26" fill="none" xmlns="http://www.w3.org/2000/svg">
<rect x="173.083" y="24.8573" width="24.554" height="24.554" transform="rotate(180 173.083 24.8573)" stroke="#F0F4C3" stroke-width="0.598878"/>
<path d="M87.1455 1.02479L75.5914 12.5789L87.1455 24.133L98.6996 12.5789L87.1455 1.02479Z" fill="#F0F4C3" stroke="#F0F4C3" stroke-width="0.598878"/>
<path d="M259.022 1.02479L247.468 12.5789L259.022 24.133L270.577 12.5789L259.022 1.02479Z" fill="#F0F4C3" stroke="#F0F4C3" stroke-width="0.598878"/>
<rect x="123.975" y="24.8573" width="24.554" height="24.554" transform="rotate(180 123.975 24.8573)" stroke="#F0F4C3" stroke-width="0.598878"/>
<rect x="148.528" y="24.8573" width="24.554" height="24.554" transform="rotate(180 148.528 24.8573)" stroke="#F0F4C3" stroke-width="0.598878"/>
<rect x="74.8678" y="24.8573" width="24.554" height="24.554" transform="rotate(180 74.8678 24.8573)" stroke="#F0F4C3" stroke-width="0.598878"/>
<rect x="246.745" y="24.8573" width="24.554" height="24.554" transform="rotate(180 246.745 24.8573)" stroke="#F0F4C3" stroke-width="0.598878"/>
<rect x="221.593" y="24.8534" width="48.5091" height="24.554" rx="12.277" transform="rotate(180 221.593 24.8534)" fill="#43A047" stroke="#F0F4C3" stroke-width="0.598878"/>
<rect x="49.7142" y="24.8534" width="48.5091" height="24.554" rx="12.277" transform="rotate(180 49.7142 24.8534)" fill="#43A047" stroke="#F0F4C3" stroke-width="0.598878"/>
</svg>
