<svg width="1440" height="102" viewBox="0 0 1440 102" fill="none" xmlns="http://www.w3.org/2000/svg">
<line y1="50" x2="1440" y2="50" stroke="#F0F4C3" stroke-width="2"/>
<path d="M695 1C681.193 1 670 12.1929 670 26C670 39.8071 681.193 51 695 51C681.193 51 670 62.1929 670 76C670 89.8071 681.193 101 695 101C708.807 101 720 89.8071 720 76C720 89.8071 731.193 101 745 101C758.807 101 770 89.8071 770 76C770 62.1929 758.807 51 745 51C758.807 51 770 39.8071 770 26C770 12.1929 758.807 1 745 1C731.193 1 720 12.1929 720 26C720 12.1929 708.807 1 695 1Z" fill="#9BB7FF" stroke="#F0F4C3" stroke-width="2"/>
</svg>
